<svg xmlns="http://www.w3.org/2000/svg" width="75" height="20" viewBox="0 0 75 20">
    <g fill="none" fill-rule="evenodd">
        <g fill-rule="nonzero">
            <g>
                <g>
                    <path fill="#283B82" d="M8.988 16.116H3.162c-.399 0-.738-.289-.8-.68L.006.558C-.04.265.188 0 .486 0h2.782c.398 0 .737.288.8.68l.635 4.013c.061.393.401.682.799.682h1.844c3.838 0 6.052 1.849 6.63 5.513.261 1.604.012 2.863-.742 3.746-.828.968-2.297 1.48-4.246 1.48zm.672-5.434C9.34 8.601 7.744 8.601 6.2 8.601h-.88l.617 3.887c.037.235.241.408.48.408h.403c1.052 0 2.044 0 2.557-.597.306-.356.4-.885.283-1.617" transform="translate(-52 -382) translate(52 382) translate(0 .124) matrix(1 0 0 -1 0 16.117)"/>
                    <path fill="#283B82" d="M26.401 16.112h-2.79c-.237 0-.442-.173-.48-.408l-.123-.777-.195.282c-.604.873-1.95 1.165-3.295 1.165-3.082 0-5.715-2.326-6.228-5.587-.266-1.627.113-3.183 1.04-4.268.85-.997 2.066-1.413 3.513-1.413 2.484 0 3.861 1.59 3.861 1.59l-.124-.772c-.047-.295.181-.56.479-.56h2.512c.4 0 .737.289.8.682l1.508 9.508c.048.293-.18.558-.478.558zm-3.888-5.407c-.27-1.587-1.534-2.652-3.148-2.652-.81 0-1.457.259-1.873.749-.412.487-.569 1.18-.438 1.952.252 1.573 1.538 2.674 3.126 2.674.793 0 1.437-.263 1.86-.757.426-.5.594-1.197.473-1.966" transform="translate(-52 -382) translate(52 382) translate(0 .124) matrix(1 0 0 -1 0 21.48)"/>
                    <path fill="#283B82" d="M41.258 19.876h-2.803c-.267 0-.519-.133-.67-.354l-3.867-5.672-1.638 5.45c-.104.341-.42.576-.777.576h-2.755c-.335 0-.567-.326-.46-.64l3.087-9.024-2.903-4.081c-.228-.322.002-.764.396-.764h2.8c.266 0 .514.13.665.346l9.324 13.403c.223.321-.006.76-.399.76" transform="translate(-52 -382) translate(52 382) translate(0 .124) matrix(1 0 0 -1 0 25.243)"/>
                    <path fill="#469BDB" d="M50.54 16.116h-5.827c-.397 0-.737-.289-.799-.68L41.558.558C41.511.265 41.74 0 42.037 0h2.99c.277 0 .515.202.559.476l.668 4.217c.062.393.402.682.8.682h1.843c3.838 0 6.052 1.849 6.63 5.513.263 1.604.011 2.863-.743 3.746-.827.968-2.294 1.48-4.244 1.48zm.672-5.434c-.318-2.081-1.915-2.081-3.46-2.081h-.878l.617 3.887c.037.235.24.408.479.408h.403c1.05 0 2.044 0 2.557-.597.306-.356.398-.885.282-1.617" transform="translate(-52 -382) translate(52 382) translate(0 .124) matrix(1 0 0 -1 0 16.117)"/>
                    <path fill="#469BDB" d="M67.952 16.112h-2.787c-.24 0-.444-.173-.48-.408l-.123-.777-.196.282c-.604.873-1.95 1.165-3.294 1.165-3.082 0-5.714-2.326-6.227-5.587-.266-1.627.111-3.183 1.038-4.268.852-.997 2.067-1.413 3.514-1.413 2.484 0 3.861 1.59 3.861 1.59l-.124-.772c-.047-.295.181-.56.48-.56h2.512c.398 0 .737.289.8.682l1.508 9.508c.046.293-.183.558-.482.558zm-3.888-5.407c-.268-1.587-1.534-2.652-3.147-2.652-.809 0-1.458.259-1.874.749-.412.487-.567 1.18-.437 1.952.252 1.573 1.537 2.674 3.126 2.674.792 0 1.436-.263 1.86-.757.427-.5.595-1.197.472-1.966" transform="translate(-52 -382) translate(52 382) translate(0 .124) matrix(1 0 0 -1 0 21.48)"/>
                    <path fill="#469BDB" d="M71.241 15.707L68.851.558c-.048-.293.18-.558.478-.558h2.404c.4 0 .738.288.8.681l2.357 14.876c.047.293-.18.559-.478.559H71.72c-.238 0-.442-.174-.479-.409" transform="translate(-52 -382) translate(52 382) translate(0 .124) matrix(1 0 0 -1 0 16.116)"/>
                </g>
            </g>
        </g>
    </g>
</svg>
