<?xml version="1.0" encoding="UTF-8"?>
<svg width="24px" height="24px" viewBox="0 0 24 24" version="1.1" xmlns="http://www.w3.org/2000/svg" xmlns:xlink="http://www.w3.org/1999/xlink">
    <!-- Generator: Sketch 64 (93537) - https://sketch.com -->
    <title>icon/mobile/menu/white</title>
    <desc>Created with Sketch.</desc>
    <g id="icon/mobile/menu/white" stroke="none" stroke-width="1" fill="none" fill-rule="evenodd">
        <path d="M18.5238095,17 C18.7868023,17 19,17.2131977 19,17.4761905 L19,17.5238095 C19,17.7868023 18.7868023,18 18.5238095,18 L5.47619048,18 C5.21319774,18 5,17.7868023 5,17.5238095 L5,17.4761905 C5,17.2131977 5.21319774,17 5.47619048,17 L18.5238095,17 Z M18.5238095,12 C18.7868023,12 19,12.2131977 19,12.4761905 L19,12.5238095 C19,12.7868023 18.7868023,13 18.5238095,13 L5.47619048,13 C5.21319774,13 5,12.7868023 5,12.5238095 L5,12.4761905 C5,12.2131977 5.21319774,12 5.47619048,12 L18.5238095,12 Z M18.5238095,7 C18.7868023,7 19,7.21319774 19,7.47619048 L19,7.52380952 C19,7.78680226 18.7868023,8 18.5238095,8 L5.47619048,8 C5.21319774,8 5,7.78680226 5,7.52380952 L5,7.47619048 C5,7.21319774 5.21319774,7 5.47619048,7 L18.5238095,7 Z" id="Combined-Shape" fill="#FFFFFF"></path>
    </g>
</svg>