<svg xmlns="http://www.w3.org/2000/svg" width="24" height="24" viewBox="0 0 24 24">
    <g fill="none" fill-rule="evenodd">
        <path d="M0 0h24v24H0z"/>
        <path fill="#000" d="M15.601 4.774a4.859 4.859 0 0 0-.655.09.73.73 0 0 0 .298 1.428 3.61 3.61 0 0 1 3.423 1.1 3.593 3.593 0 0 1 .744 3.513c-.123.383.093.8.476.922a.74.74 0 0 0 .923-.476 4.994 4.994 0 0 0-1.042-4.91 5.1 5.1 0 0 0-3.542-1.667 5.005 5.005 0 0 0-.625 0zM9.68 6.946c-1.329.142-3.204 1.18-4.852 2.828C3.031 11.57 2 13.483 2 15.13c0 3.151 4.025 5.06 7.976 5.06 5.179 0 8.631-3.029 8.631-5.417 0-1.444-1.198-2.25-2.292-2.59-.267-.081-.468-.122-.327-.476.305-.766.361-1.432.03-1.904-.618-.886-2.348-.841-4.286-.03 0 0-.603.275-.446-.209.297-.96.256-1.767-.209-2.232-.327-.33-.796-.45-1.398-.387zm6.428.387a2.36 2.36 0 0 0-.625.06c-.338.07-.55.435-.476.774.074.338.405.55.744.476.406-.086.863.026 1.16.357.298.331.369.766.239 1.16-.108.332.056.696.387.804.33.104.7-.056.803-.387a2.466 2.466 0 0 0-.506-2.41 2.52 2.52 0 0 0-1.726-.834zm-5.714 4.197c2.638.093 4.762 1.402 4.94 3.214.205 2.072-2.172 4.003-5.327 4.316-3.155.312-5.897-1.117-6.101-3.185-.205-2.072 2.206-4.003 5.357-4.315a8.28 8.28 0 0 1 1.13-.03zm-1.786 1.994c-1.079.097-2.098.714-2.56 1.607-.628 1.216-.007 2.563 1.43 3.006 1.484.457 3.228-.234 3.838-1.548.6-1.283-.167-2.615-1.636-2.976a3.157 3.157 0 0 0-1.072-.09zm-.684 1.964c.126.004.241.045.357.09.465.19.61.688.327 1.13-.29.44-.904.651-1.369.447-.457-.201-.588-.703-.298-1.131.216-.32.607-.54.983-.536z"/>
    </g>
</svg>
