<svg xmlns="http://www.w3.org/2000/svg" width="24" height="24" viewBox="0 0 24 24">
    <g fill="none" fill-rule="evenodd">
        <path d="M0 0h24v24H0z"/>
        <path fill="#000" d="M8.249 3A5.256 5.256 0 0 0 3 8.251v7.5A5.256 5.256 0 0 0 8.251 21h7.5A5.256 5.256 0 0 0 21 15.749v-7.5A5.256 5.256 0 0 0 15.749 3h-7.5zm9.001 3a.75.75 0 1 1 0 1.5.75.75 0 0 1 0-1.5zM12 7.5c2.482 0 4.5 2.018 4.5 4.5s-2.018 4.5-4.5 4.5A4.505 4.505 0 0 1 7.5 12c0-2.482 2.018-4.5 4.5-4.5zM12 9a3 3 0 1 0 0 6 3 3 0 0 0 0-6z"/>
    </g>
</svg>
