<svg xmlns="http://www.w3.org/2000/svg" width="24" height="24" viewBox="0 0 24 24">
    <g fill="none" fill-rule="evenodd">
        <path d="M0 0h24v24H0z"/>
        <path fill="#000" d="M10.5 4C6.364 4 3 6.86 3 10.375c0 1.192.384 2.342 1.113 3.347l-.436 3.415 3.016-1.267c.969.485 2.053.764 3.186.843.555 2.209 2.86 3.787 5.496 3.787 1.09 0 2.08-.309 2.947-.773l2.181 1.224-.332-2.826c.494-.712.829-1.536.829-2.438 0-1.923-1.29-3.521-3.11-4.3.066-.338.11-.677.11-1.012C18 6.86 14.636 4 10.5 4zM7.922 7.879c.583 0 1.055.471 1.055 1.053s-.472 1.056-1.055 1.056a1.055 1.055 0 0 1 0-2.11zm5.754 0a1.054 1.054 0 1 1 0 2.11 1.054 1.054 0 1 1 0-2.11zm1.699 4.496c2.355 0 4.125 1.554 4.125 3.312 0 .666-.242 1.283-.681 1.817l-.202.246.036.317.016.135-.332-.186-.38.246c-.701.455-1.597.738-2.582.738-2.355 0-4.125-1.556-4.125-3.313 0-1.757 1.77-3.312 4.125-3.312zm-1.885 1.697a.799.799 0 1 0 .8.798.8.8 0 0 0-.8-.798zm3.785 0a.799.799 0 1 0 0 1.598.799.799 0 0 0 0-1.598z"/>
    </g>
</svg>
