<?xml version="1.0" encoding="UTF-8"?>
<svg width="24px" height="24px" viewBox="0 0 24 24" version="1.1" xmlns="http://www.w3.org/2000/svg" xmlns:xlink="http://www.w3.org/1999/xlink">
    <title>icon/form/info/outline</title>
    <g id="Customer-Care---Contact-Us" stroke="none" stroke-width="1" fill="none" fill-rule="evenodd">
        <g id="Customer-Care---Contact-Us---Desktop-2" transform="translate(-523.000000, -439.000000)">
            <g id="Group-2-Copy-11" transform="translate(507.000000, 423.000000)">
                <g id="icon/form/info/outline" transform="translate(16.000000, 16.000000)">
                    <circle id="Oval" stroke="#001489" cx="12" cy="12" r="11.5"></circle>
                    <path d="M13.0409483,8.79619048 C13.4773707,8.79619048 13.8504849,8.66031746 14.1602909,8.38857143 C14.470097,8.1168254 14.625,7.78793651 14.625,7.40190476 C14.625,7.01587302 14.470097,6.68571429 14.1602909,6.41142857 C13.8504849,6.13714286 13.4773707,6 13.0409483,6 C12.6045259,6 12.2300647,6.13714286 11.9175647,6.41142857 C11.6050647,6.68571429 11.4488147,7.01587302 11.4488147,7.40190476 C11.4488147,7.78793651 11.6050647,8.1168254 11.9175647,8.38857143 C12.2300647,8.66031746 12.6045259,8.79619048 13.0409483,8.79619048 Z M11.893319,18 C12.3135776,18 12.6826509,17.9479365 13.0005388,17.8438095 C13.3184267,17.7396825 13.7440733,17.5885714 14.2774784,17.3904762 L14.2774784,17.3904762 L14.4552802,16.7047619 C14.3636853,16.7453968 14.2155172,16.792381 14.0107759,16.8457143 C13.8060345,16.8990476 13.6228448,16.9257143 13.4612069,16.9257143 C13.1163793,16.9257143 12.8739224,16.872381 12.7338362,16.7657143 C12.59375,16.6590476 12.5237069,16.4584127 12.5237069,16.1638095 C12.5237069,16.0469841 12.5452586,15.8742857 12.5883621,15.6457143 C12.6314655,15.4171429 12.6799569,15.2139683 12.7338362,15.0361905 L12.7338362,15.0361905 L13.3965517,12.8190476 C13.4612069,12.615873 13.5056573,12.392381 13.529903,12.1485714 C13.5541487,11.9047619 13.5662716,11.7346032 13.5662716,11.6380952 C13.5662716,11.1707937 13.3925108,10.7911111 13.0449892,10.4990476 C12.6974677,10.2069841 12.203125,10.0609524 11.5619612,10.0609524 C11.2063578,10.0609524 10.8292026,10.1206349 10.4304957,10.24 C10.0317888,10.3593651 9.61422414,10.5028571 9.17780172,10.6704762 L9.17780172,10.6704762 L9,11.3561905 C9.12931034,11.3104762 9.28421336,11.2622222 9.46470905,11.2114286 C9.64520474,11.1606349 9.82165948,11.1352381 9.99407328,11.1352381 C10.3442888,11.1352381 10.5813578,11.1911111 10.7052802,11.3028571 C10.8292026,11.4146032 10.8911638,11.6126984 10.8911638,11.8971429 C10.8911638,12.0546032 10.8709591,12.2285714 10.8305496,12.4190476 C10.7901401,12.6095238 10.7403017,12.8114286 10.6810345,13.0247619 L10.6810345,13.0247619 L10.018319,15.2495238 C9.95905172,15.4831746 9.91594828,15.6926984 9.88900862,15.8780952 C9.86206897,16.0634921 9.84859914,16.2450794 9.84859914,16.4228571 C9.84859914,16.88 10.0277478,17.2571429 10.3860453,17.5542857 C10.7443427,17.8514286 11.2467672,18 11.893319,18 Z" id="i" fill="#001489"></path>
                </g>
            </g>
        </g>
    </g>
</svg>