<svg xmlns="http://www.w3.org/2000/svg" width="16" height="16" viewBox="0 0 16 16">
    <g fill="none" fill-rule="evenodd">
        <g fill="#575757">
            <g>
                <g>
                    <g>
                        <path d="M8 0c4.418 0 8 3.582 8 8s-3.582 8-8 8-8-3.582-8-8 3.582-8 8-8zm-.292 6.707c-.237 0-.489.04-.754.12-.178.053-.36.113-.549.18l-.286.107L6 7.57c.086-.03.19-.063.31-.097s.238-.05.353-.05c.233 0 .391.037.474.111.082.075.124.207.124.396 0 .105-.014.221-.04.348l-.046.197-.054.207-.442 1.483c-.04.156-.068.296-.086.42-.018.123-.027.244-.027.363 0 .304.12.556.358.754.239.198.574.297 1.005.297.28 0 .526-.035.738-.104.17-.056.385-.131.647-.227l.204-.075.119-.457c-.061.027-.16.058-.296.093-.137.036-.26.054-.367.054-.23 0-.391-.036-.485-.107-.093-.071-.14-.205-.14-.401 0-.078.015-.193.043-.346.02-.101.04-.195.063-.282l.034-.124.442-1.478c.043-.135.073-.284.089-.447.016-.162.024-.276.024-.34 0-.312-.116-.565-.347-.76-.232-.194-.562-.292-.989-.292zM8.694 4c-.291 0-.54.091-.749.274-.208.183-.312.403-.312.66 0 .258.104.477.312.658.208.182.458.272.749.272.29 0 .54-.09.746-.272.207-.18.31-.4.31-.657 0-.258-.103-.478-.31-.66C9.234 4.09 8.985 4 8.694 4z" transform="translate(-572 -211) translate(420 72) translate(72 139) translate(80)"/>
                    </g>
                </g>
            </g>
        </g>
    </g>
</svg>
