<?xml version="1.0" encoding="UTF-8"?>
<svg width="24px" height="24px" viewBox="0 0 24 24" version="1.1" xmlns="http://www.w3.org/2000/svg" xmlns:xlink="http://www.w3.org/1999/xlink">
    <!-- Generator: Sketch 64 (93537) - https://sketch.com -->
    <title>icon/flag/canada</title>
    <desc>Created with Sketch.</desc>
    <g id="icon/flag/canada" stroke="none" stroke-width="1" fill="none" fill-rule="evenodd">
        <g id="CA" transform="translate(2.000000, 6.000000)" fill-rule="nonzero">
            <polygon id="Path" fill="#FFFFFF" points="5.00540993 0 14.9946379 0 14.9946379 11.2941176 5.00540993 11.2941176"></polygon>
            <path d="M0.0108235294,0 L5.0054375,0 L5.0054375,11.2941176 L0.0108235294,11.2941176 L0.0108235294,0 Z M14.9946379,0 L19.9892243,0 L19.9892243,11.2941176 L14.9946379,11.2941176 L14.9946379,0 Z M6.49915074,5.45757353 L6.1112739,5.56363235 L7.91612684,6.83082353 C8.05261581,7.1565 7.86870037,7.2525 7.75151287,7.42332353 L9.71088787,7.22435294 L9.65987684,8.80182353 L10.065704,8.79249265 L9.97719301,7.228125 L11.9384982,7.414125 C11.8171195,7.20904412 11.7090864,7.10016176 11.8213934,6.77225735 L13.6250882,5.57168382 L13.309454,5.48027206 C13.0513658,5.32096324 13.4209614,4.71297794 13.4767151,4.32928676 C13.4767151,4.32928676 12.4235441,4.61902941 12.3545276,4.46741912 L12.0863199,4.05525 L11.1282224,4.89723529 C11.0235533,4.91730882 10.9789669,4.884 10.9543989,4.81323529 L11.3970368,3.05369118 L10.6961176,3.36906618 C10.6374412,3.38913971 10.5787647,3.37182353 10.5401066,3.31711765 L9.86593382,2.23491176 L9.17080515,3.35880882 C9.11841544,3.39908824 9.06594301,3.40374265 9.02240441,3.37636765 L8.35501471,3.07685294 L8.75565809,4.82265441 C8.72378309,4.89191912 8.64745956,4.91144118 8.55768015,4.87391912 L7.64179779,4.04148529 C7.52199081,4.19505882 7.44078676,4.44595588 7.28243199,4.50218382 C7.12404963,4.55483824 6.59364522,4.39579412 6.23813971,4.33372059 C6.35957353,4.68434559 6.73931618,5.26685294 6.49898529,5.45777206 L6.49915074,5.45757353 Z" id="Shape" fill="#BF0A30"></path>
        </g>
    </g>
</svg>