<svg xmlns="http://www.w3.org/2000/svg" width="24" height="24" viewBox="0 0 24 24">
    <g fill="none" fill-rule="evenodd">
        <path d="M0 0h24v24H0z"/>
        <path fill="#000" d="M6.56 3l1.332 4.81v2.306h1.153V7.81L10.394 3H9.232L8.75 5.188a24.893 24.893 0 0 0-.262 1.364h-.035a20.446 20.446 0 0 0-.263-1.372L7.724 3H6.56zm5.179 1.815c-.391 0-.707.077-.947.233-.24.155-.417.404-.53.743-.112.34-.17.788-.17 1.347v.755c0 .553.05.997.15 1.331.099.334.264.58.5.738.234.159.558.238.97.24.402 0 .721-.08.955-.235.234-.156.405-.4.509-.737.104-.337.157-.782.157-1.336v-.756c0-.56-.054-1.006-.162-1.343-.107-.336-.275-.585-.508-.743-.232-.158-.54-.237-.924-.237zm2.2.102v3.884c0 .48.083.835.246 1.06.164.226.418.339.763.339.497 0 .871-.24 1.12-.721h.024l.103.636h.915V4.917h-1.169v4.128a.574.574 0 0 1-.208.24.516.516 0 0 1-.293.093.265.265 0 0 1-.254-.15c-.051-.098-.077-.262-.077-.495V4.917h-1.17zm-2.227.704c.164 0 .28.086.345.259.065.172.096.444.096.817v1.62c0 .385-.032.661-.096.83-.065.17-.18.255-.343.256-.164 0-.278-.086-.34-.255-.063-.17-.094-.447-.094-.83v-1.62c0-.373.034-.646.098-.818.065-.172.176-.26.334-.26zm-5.837 5.554c-1.036 0-1.875.84-1.875 1.875v6c0 1.036.84 1.875 1.875 1.875h12.75c1.036 0 1.875-.839 1.875-1.875v-6c0-1.035-.84-1.875-1.875-1.875H5.875zm6.419 1.724h.952v2.313h.007a1.04 1.04 0 0 1 .365-.404.917.917 0 0 1 .51-.154c.234 0 .416.063.55.186.132.124.23.326.29.602.059.278.089.662.089 1.153v.693c0 .654-.079 1.135-.236 1.443-.158.308-.405.463-.738.463-.186 0-.356-.044-.509-.13a.832.832 0 0 1-.343-.35h-.022l-.1.414h-.815v-6.229zm-5.906.223h2.928v.795h-.982v5.21h-.966v-5.21h-.98v-.795zm10.45 1.535c.338 0 .6.061.78.185.181.124.31.318.384.58.074.262.11.626.11 1.088v.753H16.46v.223c0 .282.008.492.025.633.017.14.051.244.104.307.052.065.134.097.243.097.148 0 .25-.057.305-.171.054-.114.085-.306.09-.573l.85.05c.005.037.007.091.007.158 0 .406-.11.709-.332.908-.222.201-.536.302-.942.302-.487 0-.827-.153-1.024-.459-.196-.305-.293-.778-.293-1.418v-.766c0-.658.102-1.139.305-1.443.202-.303.549-.454 1.04-.454zm-6.126.08h.989v4.39h-.777l-.085-.537h-.022c-.21.407-.524.61-.944.61-.292 0-.506-.095-.645-.286-.139-.19-.208-.49-.208-.895v-3.28h.99v3.223c0 .195.022.336.065.419.043.084.114.124.215.124a.432.432 0 0 0 .246-.079.49.49 0 0 0 .176-.2v-3.488zm6.105.587c-.105 0-.184.03-.234.092-.05.062-.084.164-.1.305-.017.14-.025.354-.025.64v.315h.723v-.315c0-.282-.01-.495-.028-.64-.019-.147-.052-.248-.103-.308-.05-.06-.127-.09-.233-.09zm-3.134.032a.38.38 0 0 0-.266.114.624.624 0 0 0-.17.293v2.492c.043.076.099.133.168.171a.466.466 0 0 0 .225.059.306.306 0 0 0 .25-.114c.063-.077.107-.206.132-.387.027-.18.04-.432.04-.752v-.565c0-.344-.01-.609-.032-.795-.021-.186-.06-.32-.114-.397a.268.268 0 0 0-.233-.119z"/>
    </g>
</svg>
