<svg xmlns="http://www.w3.org/2000/svg" width="24" height="24" viewBox="0 0 24 24">
    <g fill="none" fill-rule="evenodd">
        <path d="M0 0h24v24H0z"/>
        <path fill="#000" fill-rule="nonzero" d="M11.988 3C8.473 3 5 5.342 5 9.135c0 2.411 1.356 3.782 2.178 3.782.34 0 .536-.946.536-1.213 0-.319-.813-.997-.813-2.323 0-2.754 2.097-4.706 4.81-4.706 2.333 0 4.059 1.325 4.059 3.76 0 1.82-.73 5.23-3.094 5.23-.853 0-1.582-.615-1.582-1.499 0-1.294.83-2.548.83-3.884 0-2.268-3.142-1.857-3.142.884 0 .575.072 1.212.329 1.736-.473 2.035-1.342 5.278-1.342 7.375 0 .647.093 1.284.154 1.932.117.13.06.116.237.051 1.727-2.363 1.566-3.037 2.347-6.13.422.801 1.511 1.233 2.375 1.233 3.638 0 5.272-3.546 5.272-6.742C18.154 5.22 15.214 3 11.988 3z"/>
    </g>
</svg>
