<svg xmlns="http://www.w3.org/2000/svg" width="24" height="24" viewBox="0 0 24 24">
    <g fill="none" fill-rule="evenodd">
        <path d="M0 0h24v24H0z"/>
        <path fill="#000" d="M22 6.176a7.888 7.888 0 0 1-2.27.622 3.958 3.958 0 0 0 1.737-2.186 7.923 7.923 0 0 1-2.51.96 3.951 3.951 0 0 0-6.733 3.603 11.217 11.217 0 0 1-8.143-4.13 3.942 3.942 0 0 0-.534 1.988c0 1.37.697 2.58 1.757 3.288a3.943 3.943 0 0 1-1.79-.494v.05a3.952 3.952 0 0 0 3.17 3.873 3.953 3.953 0 0 1-1.785.069 3.956 3.956 0 0 0 3.691 2.744 7.925 7.925 0 0 1-5.85 1.636 11.186 11.186 0 0 0 6.057 1.775c7.268 0 11.242-6.02 11.242-11.242 0-.171-.004-.342-.012-.511A8.04 8.04 0 0 0 22 6.176z"/>
    </g>
</svg>
