<svg id="Layer_1" data-name="Layer 1" xmlns="http://www.w3.org/2000/svg" viewBox="0 0 239.06 83.84"><title>Coach-Insider-Logo</title><path d="M14.49,40.67c-1.55.47-2.74.82-4.22,6.47S6.4,76.19,6.4,76.19c-.14,7.29,3,8.83,3,8.83,1.06.94,4.43.35,5.49-.13,2.07-.92,3.17-10.58,3.58-13s2.85-23.53,2.33-27.17S16.07,40.2,14.49,40.67Z" transform="translate(-6.39 -5.1)"/><path d="M60.66,43.59c-1.61,1.25-3.66,4.57-4.2,12.56s-1.28,18.29-1.28,18.29,0,2.27-1.41-.92c-1.31-3-6.39-15.43-7.4-19.71,0-2.82-.13-7.25-.78-8.62-1-2.06-5.71-3.1-8.94-2.74s-5.15,5.71-5.15,5.71-5.61,22.46-4.2,29,8.39,6.73,8.39,6.73c1.29.69,4.52-10.16,5-11.62.17-.61,1.13-3.32,2.22-6.35,1.46,3.1,8.27,17.29,13,19,5.28,1.93,5.59-2.63,5.59-2.63l1.73-23.74s2.47-13.81,2.25-14.72S62.27,42.33,60.66,43.59Z" transform="translate(-6.39 -5.1)"/><path d="M83.61,41.42c-5.81,2.06-9.86,5.19-10.85,13.7-.63,5.65,5.42,8.71,8.69,10.35a16.91,16.91,0,0,1,1.76,1l.65.42C85.73,68.05,87.2,69,85.07,74c-2.39,5.67-11.91,5.06-12,5H73l-.15.07a2.36,2.36,0,0,0-1.3,2,3.17,3.17,0,0,0,1.65,2.93c1.83,1.13,5.18,1.43,8,1.43a33.62,33.62,0,0,0,3.75-.18C88.1,85,92.82,81.14,94.69,76c1.65-4.58,1.85-7.39.61-9.12a36.26,36.26,0,0,0-9.66-8.18c-3.51-1.85-3.19-3.7-3.18-3.77V54.7a6.64,6.64,0,0,1,2-4.7,3,3,0,0,1,1.91-1c1.44.09,2.89,1.68,3.25,2.33.65,1.14,4.29,4.65,8.69,3a3.37,3.37,0,0,0,2.27-2.58c.55-2.79-2-6.65-3.14-7.74C93.63,40.47,88.85,39.55,83.61,41.42Z" transform="translate(-6.39 -5.1)"/><path d="M118.22,38.78c-2.21,0-3.81.95-4.22,2,0,0-7.9,33.62-7.16,40.35s3.87,6.4,5.32,6.2,3.1-3,3.87-5.09-.23-6,1.42-11.93,4.46-26,4.46-27.93a3.55,3.55,0,0,0-3.53-3.57Z" transform="translate(-6.39 -5.1)"/><path d="M145.34,39.9s-5.83-3.17-8.22,0c0,0-9.53,24.52-9.29,41.75a10.32,10.32,0,0,0,2.64,3.87c2,1.85,4.85,3.69,6.77,3.39,2.88-.45,9.79-5.15,11-6,1-.69,10.42-6.43,12.39-15.83s2.15-16.69-3.28-22.43C152.89,39.9,145.34,39.9,145.34,39.9Zm1.33,36.18c-1.33,1.72-3.72,3-4.25,2.52s.4-6.63.4-8.08,1.46-24.65,1.46-24.65c6-1.46,9.81,4.23,10.84,11.39s-7.13,17.1-8.45,18.82Z" transform="translate(-6.39 -5.1)"/><path d="M201.43,39.24c-1.19-.53-16.83,1.46-19.61,1.46s-6.76.26-6.76.26-6.36,22.83-6.09,37c0,0-2.26,2.52-.78,4.65s9.94,6.63,16,4.11,9-5.42,9.14-6.36-.92-2-5.17-2.26-7.55-.66-7.55-.66S182,72.25,182.51,70s.66-5.3,1.85-6.36,11.91-3.72,11.91-3.72,2.38-.53,2.52-2-2.26-1.33-2.26-1.33l-10.33-.4s-1.47-2,1.05-7.56c.71-1.54,4.77-3.3,6.63-3.43s8.21-1.34,9-2S202.63,39.78,201.43,39.24Z" transform="translate(-6.39 -5.1)"/><path d="M241.06,76c-4.22-2.81-12.24-4.73-14.29-4.85-2.26-.13-1.33-2.39-1.33-2.39S236,59,241.32,52.25s4-11.26,4-11.26c-.27-4.25-7.29-5.43-10.47-5.43s-10.2,3.71-11,4-3.88.14-5.7.14-2.26,1.06-2.26,1.06-2.25,5.69-3.31,8.88-6.5,22.94-7.15,29.54c-.88,8.76,2.51,9.14,2.51,9.14a35.1,35.1,0,0,0,3.58-.66,4.73,4.73,0,0,0,2.25-1.72s3-8.62,3.39-9.81,3.24-1.19,5.5-.78,6.65,1.67,7.18,1.8S235,78.79,235,78.79a1.67,1.67,0,0,0,.94,0c.29-.13.32-.6.74-.57.94.07,2.24.34,2.65.34.78,0-2.07-2.17-.62-1.65a8.13,8.13,0,0,0,3,.58.52.52,0,0,0,.45-.57h0A7.44,7.44,0,0,0,241.06,76Zm-19.6-17s2-5.35,2.36-6.58a8.45,8.45,0,0,1,1.75-3.19c.61-.72,11.3-8.84,11.71-8.43s1,.31-.3,1.75-12.34,15.11-13,15.82-2.47,1.76-2.57.63Z" transform="translate(-6.39 -5.1)"/><path d="M101.21,8.39A27.15,27.15,0,0,0,87.66,5.11,27.19,27.19,0,0,0,74.1,8.39,7.84,7.84,0,0,0,70,15.14a7.89,7.89,0,0,0,4.15,6.77,27.34,27.34,0,0,0,13.56,3.26,27.33,27.33,0,0,0,13.55-3.26,7.91,7.91,0,0,0,4.16-6.77A7.84,7.84,0,0,0,101.21,8.39Zm-13.54,16c-3.28,0-8.84-1.95-8.84-9.3,0-6.41,4.44-9.29,8.84-9.29,5.91,0,9.42,3.47,9.42,9.29C97.08,21.39,94,24.43,87.67,24.43Z" transform="translate(-6.39 -5.1)"/><polygon points="187.99 19.05 184.79 19.05 184.79 9.92 197.41 9.92 197.41 19.05 194.21 19.05 194.21 19.8 208.81 19.8 208.87 19.79 208.87 19.05 205.67 19.05 205.67 1.05 208.87 1.05 208.87 0.29 194.21 0.29 194.21 1.05 197.41 1.05 197.41 9.18 184.79 9.18 184.79 1.04 187.99 1.05 187.99 0.36 187.99 0.29 173.34 0.29 173.34 1.05 176.53 1.05 176.53 19.05 173.34 19.05 173.34 19.8 187.99 19.8 187.99 19.05"/><path d="M126.62,24.9H145v-.77h-4.07l-17.39-19h-.44l-15.57,19H104v.77h8.79v-.77h-4.3l3.92-4.76h14l4.37,4.77h-4.19ZM113,18.64l5.92-7.31,6.83,7.31Z" transform="translate(-6.39 -5.1)"/><path d="M53,25.2A12.69,12.69,0,0,0,60.49,23l3.59,1.94h.58V17.35h-.59v0a10.7,10.7,0,0,1-2.23,3.51,11.47,11.47,0,0,1-8.69,3.52,8.5,8.5,0,0,1-7-3.19,10.14,10.14,0,0,1-2-6.08,9,9,0,0,1,8.62-9.29h.4a11.93,11.93,0,0,1,7.74,2.71A10,10,0,0,1,64,12.91V13h.6V5.41h-.55l-3.67,2a12.14,12.14,0,0,0-2.18-1.12A17.39,17.39,0,0,0,52,5.11,26,26,0,0,0,40.42,7.5C36.89,9.29,35,11.93,35,15.14,35,21.72,41.19,25.2,53,25.2Z" transform="translate(-6.39 -5.1)"/><path d="M173.56,24.9h.58V17.35h-.59v0a10.65,10.65,0,0,1-2.21,3.51,11.44,11.44,0,0,1-8.69,3.52,8.52,8.52,0,0,1-7-3.19,10.21,10.21,0,0,1-2-6.08,9,9,0,0,1,8.62-9.29h.4a11.88,11.88,0,0,1,7.75,2.71,10.1,10.1,0,0,1,3.15,4.34V13h.59V5.41h-.55l-3.67,2a11.55,11.55,0,0,0-2.22-1.12,17.44,17.44,0,0,0-6.27-1.14A26.05,26.05,0,0,0,149.87,7.5c-3.53,1.79-5.42,4.43-5.42,7.64,0,6.58,6.2,10.07,18,10.07A12.53,12.53,0,0,0,169.94,23Z" transform="translate(-6.39 -5.1)"/></svg>