<svg xmlns="http://www.w3.org/2000/svg" width="20" height="20" viewBox="0 0 20 20">
    <g fill="none" fill-rule="evenodd">
        <g fill="#000" fill-rule="nonzero" stroke="#FFF" stroke-width=".9">
            <g>
                <g>
                    <g>
                        <path d="M18 4.5c-.01-.138-.042-.274-.095-.403l-1.8-3.6C15.953.193 15.641 0 15.3 0H2.7c-.34 0-.653.193-.805.497l-1.8 3.6C.042 4.226.01 4.362 0 4.5v.9c.003.869.323 1.706.9 2.356V17.1c.001.496.404.899.9.9h14.4c.496-.001.899-.404.9-.9V7.756c.577-.65.897-1.487.9-2.356v-.9zm-3.6 2.7c-.994-.001-1.799-.806-1.8-1.8h3.6c-.001.994-.806 1.799-1.8 1.8h0zM1.8 5.4h3.6c0 .994-.806 1.8-1.8 1.8s-1.8-.806-1.8-1.8zm9 0c0 .994-.806 1.8-1.8 1.8s-1.8-.806-1.8-1.8h3.6zM3.256 1.8h11.488l.9 1.8H2.356l.9-1.8zM8.1 16.2v-2.7c0-.497.403-.9.9-.9s.9.403.9.9v2.7H8.1zm3.6 0v-2.7c0-1.491-1.209-2.7-2.7-2.7s-2.7 1.209-2.7 2.7v2.7H2.7V8.872c.293.081.596.124.9.128 1.038-.003 2.023-.457 2.7-1.244C6.975 8.546 7.961 9 9 9c1.039 0 2.025-.455 2.7-1.244.877 1.046 2.285 1.483 3.6 1.116V16.2h-3.6z" transform="translate(-311 -821) translate(172 675) translate(140 145) translate(0 2)"/>
                    </g>
                </g>
            </g>
        </g>
    </g>
</svg>
