<?xml version="1.0" encoding="UTF-8"?>
<svg width="24px" height="24px" viewBox="0 0 24 24" version="1.1" xmlns="http://www.w3.org/2000/svg" xmlns:xlink="http://www.w3.org/1999/xlink">
    <title>Promo Symbol</title>
    <g id="Checkout-Journey---Guest-Shipping" stroke="none" stroke-width="1" fill="none" fill-rule="evenodd">
        <g id="Mobile---SW---Checkout---Guest---Payment" transform="translate(-24.000000, -230.000000)">
            <g id="Group-7" transform="translate(24.000000, 185.000000)">
                <g id="Promo-Symbol" transform="translate(0.000000, 45.000000)">
                    <rect id="Rectangle" x="0" y="0" width="24" height="24"></rect>
                    <path d="M8.83275,23.24925 C8.442,23.24925 8.05275,23.10075 7.75575,22.80375 L1.1955,16.2435 C0.60225,15.65025 0.60225,14.68425 1.19475,14.09025 L10.284,5.00175 C10.545,4.74 10.89225,4.58325 11.2605,4.5585 L18.288,4.0905 C18.73125,4.0605 19.15575,4.2225 19.467,4.533 C19.7775,4.84425 19.93875,5.27325 19.9095,5.712 L19.4415,12.7395 C19.41675,13.10775 19.26,13.455 18.99825,13.716 L9.9105,22.80375 C9.61275,23.10075 9.22275,23.24925 8.83275,23.24925 Z M18.3885,5.5875 L11.36025,6.0555 L2.25675,15.15 L8.817,21.74325 L17.93775,12.6555 L18.4125,5.6115 L18.3885,5.5875 Z" id="Shape" fill="#000000" fill-rule="nonzero"></path>
                    <path d="M13.206,13.08975 C12.59325,13.08975 12.01575,12.8505 11.58225,12.417 C11.1495,11.98425 10.91025,11.40675 10.91025,10.794 C10.91025,10.1805 11.1495,9.603 11.583,9.1695 C12.44925,8.30325 13.9635,8.304 14.8305,9.17025 C15.26325,9.603 15.5025,10.1805 15.5025,10.794 C15.5025,11.40675 15.264,11.9835 14.8305,12.417 L14.8305,12.417 C14.397,12.8505 13.82025,13.08975 13.206,13.08975 Z M13.206,9.99675 C12.99375,9.99675 12.79425,10.07925 12.64425,10.23075 C12.49275,10.3815 12.4095,10.581 12.4095,10.794 C12.4095,11.00625 12.492,11.20575 12.6435,11.35575 C12.94575,11.6595 13.46925,11.65725 13.7685,11.3565 L13.76925,11.35575 C13.92,11.20575 14.00325,11.00625 14.00325,10.794 C14.00325,10.581 13.92075,10.3815 13.76925,10.2315 C13.6185,10.07925 13.41975,9.99675 13.206,9.99675 Z" id="Shape" fill="#000000" fill-rule="nonzero"></path>
                    <path d="M19.22025,5.52975 C19.02825,5.52975 18.83625,5.45625 18.69,5.31 C18.39675,5.01675 18.39675,4.54275 18.69,4.2495 L21.96975,0.96975 C22.263,0.6765 22.737,0.6765 23.03025,0.96975 C23.3235,1.263 23.3235,1.737 23.03025,2.03025 L19.7505,5.31 C19.60425,5.45625 19.41225,5.52975 19.22025,5.52975 Z" id="Path" fill="#000000" fill-rule="nonzero"></path>
                </g>
            </g>
        </g>
    </g>
</svg>