<svg xmlns="http://www.w3.org/2000/svg" width="48" height="48" fill="none" viewBox="0 0 48 48">
    <path fill="#000" fill-rule="evenodd" d="M43.496 13.16C43.395 10.85 41.494 9 39.166 9H8.834l-.193.004C6.338 9.107 4.5 11.02 4.5 13.352V34.65l.004.193C4.605 37.152 6.506 39 8.834 39h30.332l.193-.004c2.303-.102 4.141-2.014 4.141-4.347V13.353l-.004-.194zm-35.04-2.835h31.089l.154.004c1.373.081 2.471 1.246 2.471 2.668v22.007l-.004.157c-.08 1.403-1.228 2.516-2.621 2.516H8.455l-.154-.004c-1.374-.081-2.471-1.246-2.471-2.669V12.998l.004-.157c.08-1.403 1.228-2.516 2.621-2.516z" clip-rule="evenodd"/>
    <path fill="#231F20" fill-rule="evenodd" d="M24.587 30.911c-5.119 0-9.285-4.146-9.285-9.242h1.664c0 4.183 3.418 7.587 7.621 7.587s7.622-3.404 7.622-7.587h1.663c0 5.096-4.166 9.242-9.285 9.242z" clip-rule="evenodd"/>
    <path fill="#000" fill-rule="evenodd" d="M32.992 13.709c-1.409 0-2.554 1.14-2.554 2.543 0 1.402 1.145 2.543 2.554 2.543 1.409 0 2.555-1.14 2.555-2.543 0-1.402-1.146-2.543-2.555-2.543zm0 1.332c.673 0 1.217.542 1.217 1.21 0 .67-.544 1.212-1.217 1.212-.672 0-1.216-.542-1.216-1.211s.544-1.211 1.216-1.211zM15.859 13.709c-1.409 0-2.555 1.14-2.555 2.543 0 1.402 1.146 2.543 2.555 2.543 1.408 0 2.554-1.14 2.554-2.543 0-1.402-1.146-2.543-2.554-2.543zm0 1.332c.672 0 1.216.542 1.216 1.21 0 .67-.544 1.212-1.216 1.212-.672 0-1.217-.542-1.217-1.211s.545-1.211 1.217-1.211z" clip-rule="evenodd"/>
</svg>
