<svg xmlns="http://www.w3.org/2000/svg" width="24" height="24" fill="none" viewBox="0 0 24 24">
    <path fill="#000" d="M11.923 4C8.62 4 5.915 6.704 5.915 10.008c0 3.305 2.704 6.009 6.008 6.009 3.305 0 6.008-2.704 6.008-6.009C17.931 6.704 15.229 4 11.924 4zm0 11.265c-2.929 0-5.257-2.328-5.257-5.257s2.328-5.257 5.257-5.257c2.93 0 5.257 2.328 5.257 5.257 0 2.93-2.328 5.258-5.257 5.258z"/>
    <path fill="#000" fill-rule="evenodd" d="M18.007 19.321l-2.479-4.28c-.075-.226-.375-.301-.6-.151-.226.075-.3.375-.15.6l2.478 4.282c.075.225.375.3.6.15.226-.15.301-.376.15-.6z" clip-rule="evenodd"/>
</svg>
