<svg xmlns="http://www.w3.org/2000/svg" width="17" height="16" fill="none" viewBox="0 0 17 16">
    <path fill="#000" fill-rule="evenodd" d="M5 14h7c.643 0 1.167-.493 1.167-1.1V7.767c0-.607-.524-1.1-1.167-1.1H5c-.643 0-1.167.493-1.167 1.1V12.9c0 .607.524 1.1 1.167 1.1zM4.61 7.767c0-.203.175-.367.389-.367h7c.214 0 .389.164.389.367V12.9c0 .202-.175.367-.39.367H5c-.213 0-.388-.165-.388-.367V7.767z" clip-rule="evenodd"/>
    <path fill="#000" d="M10.791 7.333c-.207 0-.375-.17-.375-.38V5.047c0-1.26-1.009-2.286-2.25-2.286-1.24 0-2.25 1.025-2.25 2.286v1.904c0 .21-.168.381-.375.381s-.375-.17-.375-.38V5.047c0-1.681 1.346-3.048 3-3.048 1.655 0 3 1.367 3 3.048v1.904c0 .21-.168.381-.375.381z"/>
</svg>
