<svg xmlns="http://www.w3.org/2000/svg" width="24" height="24" viewBox="0 0 24 24">
    <path fill-rule="evenodd" d="M15.93 4c2.812 0 3.985 1.365 4.495 3.66.332 1.488-.452 3.979-2.09 6.11-.459.598-1.105 1.314-1.907 2.125-.244.248-.502.503-.77.764-.74.718-1.531 1.45-2.323 2.159-.276.248-.534.475-.764.677l-.255.22-.037.033-.294.252-.28-.268-.24-.23-.63-.607c-.651-.63-1.303-1.266-1.911-1.868l-.077-.076-.076-.076c-1.209-1.2-2.066-2.087-2.45-2.554-.098-.12-.497-.594-.48-.574-.213-.254-.38-.46-.542-.671C4.129 11.552 3.5 10.072 3.5 8.238 3.5 5.831 4.84 4 7.697 4c1.86 0 3.165.654 3.96 1.77.133.186.248.381.345.579C12.652 5.094 14.012 4 15.93 4z"/>
</svg>
