<svg xmlns="http://www.w3.org/2000/svg" width="48" height="49" fill="none" viewBox="0 0 48 49">
    <path fill="#000" fill-rule="evenodd" d="M22.337 7.645c.371-.705.837-1.131 1.622-1.143.855-.012 1.357.478 1.762 1.28.008.014.017.032.026.053l.396.856c.283.642.507 1.289.662 1.925.543 2.178-.363 4.425-2.72 4.425l-.232.002-.157-.004c-2.205-.147-3.02-2.329-2.507-4.416.189-.772.477-1.558.84-2.313l.06-.133c.056-.127.136-.306.175-.387l.073-.145zm1.733.689l-.08-.14-.145.279-.386.846c-.245.555-.442 1.122-.577 1.674-.306 1.246.108 2.354.906 2.407l.074.002.213-.002c.88 0 1.327-1.024 1.072-2.263l-.034-.15c-.161-.656-.41-1.334-.73-2.004l-.207-.447-.106-.202z" clip-rule="evenodd"/>
    <path fill="#000" d="M24.867 14.22v3.666h-1.739v-3.665h1.739z"/>
    <path fill="#000" fill-rule="evenodd" d="M14.93 17.222h18.146c2.277 0 4.138 1.757 4.138 3.906 0 .217-.02.43-.056.64l-.019.088.096.019c2.376.493 4.176 2.461 4.262 4.828l.003.188c0 3.223-1.297 5.131-3.495 5.73-1.496.408-3.376.103-4.32-.465-.18-.107-.352-.237-.612-.45l-.607-.493c-.695-.54-1.242-.806-1.772-.816-.687-.013-1.063.18-1.744.807l-.524.48c-1.12.983-2.148 1.433-3.834 1.433-1.98 0-3.12-.462-4.254-1.45l-.527-.465c-.471-.397-.778-.529-1.322-.547-.875-.028-1.233.154-1.937.836l-.311.298c-1.002.925-1.892 1.328-3.47 1.328-4.166 0-6.271-2.697-6.271-6.231 0-2.447 1.836-4.506 4.272-5.011l.093-.019-.018-.088c-.024-.14-.041-.282-.05-.424l-.006-.216c0-2.15 1.861-3.906 4.139-3.906zm18.146 1.64H14.93c-1.318 0-2.4 1.023-2.4 2.266 0 .374.097.734.283 1.059l.69 1.21h-1.569c-2.03 0-3.696 1.572-3.696 3.489 0 2.717 1.462 4.59 4.533 4.59 1.13 0 1.615-.241 2.386-.985l.309-.296c.939-.87 1.709-1.223 3.083-1.18 1.085.036 1.754.372 2.582 1.104l.386.343c.826.72 1.554 1.014 3.075 1.014 1.262 0 1.905-.307 2.8-1.128l.516-.474c.903-.794 1.649-1.14 2.82-1.118 1.015.02 1.874.436 2.843 1.19-.015-.011.675.553.952.759l.094.066c.54.325 1.907.546 2.906.274 1.398-.381 2.239-1.618 2.239-4.156.004-1.921-1.657-3.492-3.691-3.492H34.5l.693-1.21c.185-.325.283-.684.283-1.059 0-1.243-1.083-2.265-2.4-2.265z" clip-rule="evenodd"/>
    <path fill="#000" fill-rule="evenodd" d="M27.883 29.786c.902-.794 1.649-1.14 2.82-1.118l.215.01c.923.07 1.727.48 2.628 1.181-.021-.016.903.74 1.044.823.328.197 1.172.407 1.947.4l1.048-.01-1.608 8.536c-.209 1.097-1.22 1.894-2.4 1.894H14.382c-1.178 0-2.19-.8-2.4-1.896L10.38 31.08l1.23.21c.38.066.749.1 1.135.1 1.13 0 1.616-.242 2.387-.986l.308-.296c.94-.87 1.71-1.223 3.084-1.18 1.084.036 1.753.372 2.581 1.104l.084.074.092.082.347.303c.772.635 1.502.899 2.938.899 1.262 0 1.906-.308 2.8-1.129l.193-.178.052-.05.272-.246zm2.785.523h-.142c-.6.017-.969.225-1.602.807l-.524.48c-1.12.983-2.148 1.433-3.834 1.433-1.98 0-3.12-.462-4.254-1.45l-.527-.465c-.471-.396-.777-.529-1.321-.547-.876-.028-1.233.154-1.938.836l-.31.298c-1.003.925-1.892 1.328-3.47 1.328l-.235-.005 1.183 6.293c.054.285.3.501.598.538l.09.006h19.195c.34 0 .629-.228.689-.542l1.256-6.67-.068-.01c-.648-.099-1.247-.281-1.663-.497l-.131-.074c-.18-.107-.353-.237-.613-.45l-.512-.418-.266-.204c-.615-.454-1.115-.678-1.601-.687z" clip-rule="evenodd"/>
</svg>
