<svg xmlns="http://www.w3.org/2000/svg" width="30" height="24" viewBox="0 0 30 24">
    <g fill="none" fill-rule="evenodd">
        <g fill="#1E1E1E" fill-rule="nonzero">
            <g>
                <g>
                    <path fill="#000" fill-rule="evenodd" d="M24.835 22.213c0 .383-.301.704-.65.73H15.53v-11.9h9.306v11.17zm-19.67 0v-11.17h9.307v11.9h-8.62c-.385-.026-.686-.347-.686-.73zm2.773-19.36c0-.99.804-1.795 1.792-1.795.496 0 .957.198 1.282.54L13.86 4.61H9.075l.027-.074c-.696-.26-1.164-.937-1.164-1.681zM18.91 1.689l.062-.072c.342-.36.804-.558 1.3-.558.987 0 1.791.806 1.791 1.796 0 .744-.467 1.42-1.164 1.681l.027.074h-4.785l2.77-2.921zM4.093 9.984c-1.188 0-2.154-.968-2.154-2.158 0-1.191.966-2.159 2.154-2.159h9.588L11.738 7.72l.764.729 2.5-2.636 2.498 2.636.765-.73-1.945-2.05h9.588c1.188 0 2.155.967 2.155 2.158 0 1.19-.967 2.158-2.155 2.158H4.093zM25.907 4.61h-3.405c.387-.493.617-1.106.617-1.755C23.119 1.28 21.84 0 20.27 0c-.787 0-1.52.315-2.08.905L15 4.277 11.887.995l-.095-.108C11.252.315 10.518 0 9.73 0 8.16 0 6.882 1.28 6.882 2.854c0 .65.23 1.262.616 1.755H4.093c-1.77 0-3.21 1.443-3.21 3.217s1.44 3.217 3.21 3.217h.017v11.17c0 .937.733 1.722 1.705 1.787l18.407-.002c.936-.063 1.67-.847 1.67-1.785v-11.17h.015c1.771 0 3.21-1.443 3.21-3.217s-1.439-3.217-3.21-3.217z" clip-rule="evenodd"/>
                </g>
            </g>
        </g>
    </g>
</svg>
