<svg xmlns="http://www.w3.org/2000/svg" width="48" height="49" fill="none" viewBox="0 0 48 49">
    <path fill="#000" fill-rule="evenodd" d="M36.54 36.768c0 .48-.384.88-.828.912H24.673V22.806H36.54v13.963zm-25.08 0V22.805h11.867v14.876H12.335c-.49-.032-.875-.434-.875-.913zm3.536-24.199c0-1.238 1.024-2.244 2.284-2.244.632 0 1.22.247 1.635.675l3.631 3.763h-6.101l.035-.092c-.888-.326-1.484-1.171-1.484-2.102zm13.99-1.457l.078-.09c.436-.45 1.025-.697 1.657-.697 1.26 0 2.285 1.006 2.285 2.244 0 .93-.596 1.776-1.485 2.102l.035.092h-6.101l3.53-3.651zm-18.893 10.37c-1.515 0-2.747-1.21-2.747-2.697 0-1.49 1.232-2.7 2.747-2.7h12.226l-2.48 2.565.975.912L24 16.267l3.186 3.294.976-.91-2.48-2.565h12.226c1.514 0 2.747 1.21 2.747 2.699 0 1.487-1.233 2.697-2.748 2.697H10.093zm27.814-6.719h-4.341c.492-.615.786-1.382.786-2.194 0-1.967-1.629-3.567-3.63-3.567-1.005 0-1.94.394-2.655 1.13L24 14.349l-3.968-4.102-.12-.135c-.693-.715-1.628-1.109-2.632-1.109-2.002 0-3.63 1.6-3.63 3.567 0 .813.293 1.579.785 2.194h-4.342C7.836 14.763 6 16.567 6 18.785c0 2.217 1.836 4.02 4.093 4.02h.021v13.963c0 1.172.935 2.152 2.175 2.234L35.759 39c1.193-.08 2.128-1.06 2.128-2.232V22.805h.02c2.258 0 4.093-1.803 4.093-4.02 0-2.218-1.835-4.022-4.093-4.022z" clip-rule="evenodd"/>
</svg>
