<svg width="74" height="58" fill="none" xmlns="http://www.w3.org/2000/svg">
    <path d="M15.043 49.245a2.982 2.982 0 0 0 2.226-1.018l7.777-8.71h12.56c5.186 0 10.16-2.081 13.827-5.787A19.864 19.864 0 0 0 57.16 19.76c0-5.24-2.06-10.266-5.727-13.972A19.453 19.453 0 0 0 37.606 0h-18.05A19.43 19.43 0 0 0 7.157 4.478 19.796 19.796 0 0 0 .381 15.884a19.94 19.94 0 0 0 1.914 13.162 19.63 19.63 0 0 0 9.74 8.952v8.222a3.062 3.062 0 0 0 .525 1.724c.344.507.832.897 1.4 1.119.347.127.714.189 1.083.182zM37.606 3.04a16.46 16.46 0 0 1 11.7 4.897 16.808 16.808 0 0 1 4.846 11.822c0 4.434-1.744 8.686-4.846 11.822a16.46 16.46 0 0 1-11.7 4.897H23.692l-8.65 9.712V35.87l-1.007-.365a16.587 16.587 0 0 1-8.724-7.31A16.867 16.867 0 0 1 3.29 16.928a16.76 16.76 0 0 1 5.628-9.94A16.444 16.444 0 0 1 19.555 3.04h18.05z" fill="#000"/>
    <path d="M60.313 56.163c.333.128.688.185 1.044.168.312-.011.62-.08.907-.2.47-.21.865-.556 1.133-.993.268-.436.396-.943.367-1.453l-.337-6.106c3.449-1.648 6.184-5.124 7.799-8.564A16.317 16.317 0 0 0 72.252 28a16.363 16.363 0 0 0-5.169-8.296c-.562-.484-1.41-.32-1.808.306-.36.568-.22 1.313.283 1.761A13.84 13.84 0 0 1 69.84 29a13.775 13.775 0 0 1-1.203 9.434c-1.508 2.908-5.245 7.181-8.287 8.447l.87 6.918-8.94-7.885-12.205.279c-3.266.177-5.21-.328-7.514-2.128-.549-.428-1.34-.391-1.807.125-.473.522-.431 1.335.118 1.775 2.822 2.261 5.255 3.02 9.193 2.807l10.984-.04 8.38 6.858c.251.25.552.446.884.574z" fill="#000"/>
</svg>
