<svg xmlns="http://www.w3.org/2000/svg" width="24" height="24" fill="none" viewBox="0 0 24 24">
    <path stroke="#000" d="M7.8 9.75V7.064C7.8 4.829 9.65 3 11.908 3h.188C14.353 3 16.2 4.829 16.2 7.064V9.75"/>
    <path fill-rule="evenodd" stroke="#000" d="M17.728 21H6.272C5.569 21 5 20.43 5 19.73v-9.16c0-.702.57-1.27 1.272-1.27h11.456c.702 0 1.272.568 1.272 1.27v9.16c0 .701-.57 1.27-1.272 1.27z" clip-rule="evenodd"/>
    <path fill-rule="evenodd" stroke="#000" d="M13.4 14.467c0-.617-.522-1.117-1.167-1.117-.644 0-1.167.5-1.167 1.117 0 .356.176.673.447.878v2.112c0 .216.185.393.41.393h.62c.226 0 .41-.177.41-.393v-2.112c.272-.205.447-.522.447-.878z" clip-rule="evenodd"/>
</svg>
