<svg width="48" height="48" viewBox="0 0 48 48" fill="none" xmlns="http://www.w3.org/2000/svg">
<path fill-rule="evenodd" clip-rule="evenodd" d="M43.7196 24C43.7196 13.109 34.8907 4.28015 23.9997 4.28015C13.1087 4.28015 4.27982 13.109 4.27982 24C4.27982 28.492 5.78721 32.7566 8.51203 36.2081L9.21566 37.0994L9.91918 36.2081C13.2994 31.9253 18.4388 29.3782 23.9997 29.3782C29.5612 29.3782 34.7003 31.9258 38.0786 36.2095L38.7821 37.1015L39.486 36.2099C42.212 32.7568 43.7196 28.4923 43.7196 24ZM41.9272 24.0001C41.9272 27.4888 40.9285 30.8233 39.0936 33.6778L38.7398 34.2073L38.3368 33.7672C34.6561 29.8653 29.5154 27.5855 24 27.5855C18.2809 27.5855 12.9641 30.0368 9.25912 34.2059C7.20004 31.2392 6.07284 27.7065 6.07284 24.0001C6.07284 14.0992 14.0991 6.07292 24 6.07292C33.9009 6.07292 41.9272 14.0992 41.9272 24.0001Z" fill="black"/>
<path fill-rule="evenodd" clip-rule="evenodd" d="M44 24C44 12.9543 35.0457 4 24 4C12.9543 4 4 12.9543 4 24C4 35.0457 12.9543 44 24 44C35.0457 44 44 35.0457 44 24ZM6.35327 23.9999C6.35327 14.2537 14.2541 6.35286 24.0003 6.35286C33.7465 6.35286 41.6474 14.2537 41.6474 23.9999C41.6474 33.7461 33.7465 41.647 24.0003 41.647C14.2541 41.647 6.35327 33.7461 6.35327 23.9999Z" fill="black"/>
<path fill-rule="evenodd" clip-rule="evenodd" d="M33.244 20.4146C33.244 15.3094 29.1054 11.1709 24.0003 11.1709C18.8951 11.1709 14.7566 15.3094 14.7566 20.4146C14.7566 25.5198 18.8951 29.6583 24.0003 29.6583C29.1054 29.6583 33.244 25.5198 33.244 20.4146ZM17.1099 20.4145C17.1099 16.6089 20.195 13.5238 24.0006 13.5238C27.8063 13.5238 30.8914 16.6089 30.8914 20.4145C30.8914 24.2202 27.8063 27.3053 24.0006 27.3053C20.195 27.3053 17.1099 24.2202 17.1099 20.4145Z" fill="black"/>
</svg>
