<svg xmlns="http://www.w3.org/2000/svg" width="26" height="24" viewBox="0 0 26 24">
    <g fill="none" fill-rule="evenodd">
        <g fill="#000">
            <g>
                <g>
                    <g>
                        <g>
                            <path d="M16.627.125H2.315C1.113.125.132 1.058.132 2.2v10.2c0 1.142.981 2.075 2.183 2.075h14.312c1.202 0 2.184-.933 2.184-2.075V2.2c0-1.142-.982-2.075-2.184-2.075zM2.315.875h14.312c.766 0 1.395.597 1.395 1.325v10.2c0 .728-.629 1.325-1.395 1.325H2.315c-.766 0-1.394-.597-1.394-1.325V2.2c0-.728.628-1.325 1.394-1.325z" transform="translate(-961 -1017) translate(960 847) translate(.268 170) translate(.732) translate(3.157 4.5)"/>
                            <path d="M18.19 1.893c.178-.119.425-.078.55.092.113.154.088.361-.052.487l-.045.035-8.945 5.95c-.12.08-.273.09-.4.03l-.053-.03L.3 2.507C.12 2.388.078 2.155.203 1.985c.114-.154.327-.202.5-.12l.05.028L9.47 7.692l8.719-5.8z" transform="translate(-961 -1017) translate(960 847) translate(.268 170) translate(.732) translate(3.157 4.5)"/>
                        </g>
                    </g>
                </g>
            </g>
        </g>
    </g>
</svg>
