<svg id="Layer_1" data-name="Layer 1" xmlns="http://www.w3.org/2000/svg" viewBox="0 0 43.66 42.49"><title>icon-special-moments</title><path d="M35.2,34.35c.88-.62,8.7-6.13,9.86-7.42a2.14,2.14,0,0,0,.2-2.78,1.75,1.75,0,0,0-1-.64,7.6,7.6,0,0,0-1.41-.23c-2.56-.15-8.19-.26-10.24-.17a6.28,6.28,0,0,1-2-.16.56.56,0,0,1-.28-.14.31.31,0,0,0,0-.08c-.13-.44-3.19-10.8-4.6-13a2.23,2.23,0,0,0-2-1.16,2.16,2.16,0,0,0-1.88,1.16c-1.4,2.15-4.42,12.36-4.59,13a.09.09,0,0,0,0,.07A.47.47,0,0,1,17,23a6.36,6.36,0,0,1-2,.16c-2-.09-7.68,0-10.23.17a6.64,6.64,0,0,0-1.46.24,2.12,2.12,0,0,0-.92.68,2.07,2.07,0,0,0,.2,2.73c1.22,1.36,9.82,7.39,9.91,7.45a2,2,0,0,1,1,1.91,1.25,1.25,0,0,0,0,.15c0,.26-.08.41-.08.44-.84,1.67-5,10.06-5.23,11.79A2,2,0,0,0,9.49,51a2.07,2.07,0,0,0,.68.1,3.39,3.39,0,0,0,.49,0l.09,0a6.54,6.54,0,0,0,1.31-.63c.81-.51,2.29-1.32,3.72-2.11A68.78,68.78,0,0,0,22,44.65a6.92,6.92,0,0,1,1.54-.95l.17-.07a.61.61,0,0,1,.17,0,.48.48,0,0,1,.18,0l.19.07a7.13,7.13,0,0,1,1.55,1,67.82,67.82,0,0,0,6.18,3.64c1.42.79,2.9,1.6,3.72,2.11A6.89,6.89,0,0,0,37,51l.11,0A2.47,2.47,0,0,0,38.16,51a2,2,0,0,0,1.36-2.31c-.2-1.73-4.39-10.12-5.22-11.76,0,0,0-.2-.09-.45a.52.52,0,0,0,0-.17A1.94,1.94,0,0,1,35.2,34.35ZM32.77,36.5a.34.34,0,0,0,0,.1,3.74,3.74,0,0,0,.18.81l0,.08c2,3.92,5,10.19,5.1,11.35.07.55-.14.7-.36.77a1.43,1.43,0,0,1-.39,0,6,6,0,0,1-.94-.47c-.81-.51-2.19-1.27-3.65-2.08L32.62,47c-2.35-1.3-5-2.77-6-3.52a8.62,8.62,0,0,0-1.89-1.15l-.23-.09a2.16,2.16,0,0,0-.68-.12,2.41,2.41,0,0,0-.64.12l-.24.09a9.24,9.24,0,0,0-1.88,1.15,66.72,66.72,0,0,1-6,3.52L15,47.1c-1.46.81-2.84,1.57-3.65,2.08a5.44,5.44,0,0,1-.94.47,1,1,0,0,1-.43,0c-.11,0-.4-.12-.32-.79.13-1.16,3.13-7.43,5.1-11.35l0-.08a5.58,5.58,0,0,0,.17-.81.28.28,0,0,0,0-.08,3.39,3.39,0,0,0-1.6-3.35C11,31.51,4.61,27,3.72,26c-.3-.33-.34-.63-.14-.9a.62.62,0,0,1,.23-.18,5.37,5.37,0,0,1,1.09-.17c2.52-.15,8.08-.27,10.09-.18a8.4,8.4,0,0,0,2.45-.2,1.74,1.74,0,0,0,1.28-1.22c1.08-3.66,3.39-11,4.41-12.56.32-.49.48-.5.73-.52s.38,0,.71.52c1,1.58,3.34,8.9,4.41,12.55a1.73,1.73,0,0,0,1.28,1.23,8.4,8.4,0,0,0,2.45.2c2-.09,7.57,0,10.09.18a6.42,6.42,0,0,1,1.1.17l.07,0h0a.35.35,0,0,1,.15.11A.7.7,0,0,1,44,26c-.88,1-7.22,5.52-9.57,7.17A3.36,3.36,0,0,0,32.77,36.5Z" transform="translate(-2.02 -8.61)"/><path d="M38.35,26.81a.72.72,0,0,0-.35-.43.7.7,0,0,0-.55-.05L24.57,30.26l.06-14.09a.71.71,0,0,0-.21-.51.68.68,0,0,0-.51-.21.72.72,0,0,0-.72.71l-.05,14.19-13.07-4a.7.7,0,0,0-.55.05.73.73,0,0,0-.35.42.7.7,0,0,0,.05.55.69.69,0,0,0,.43.35l13,4L14.17,43.26a.7.7,0,0,0-.13.54.72.72,0,0,0,.28.47.72.72,0,0,0,1-.16l8.4-11.48L31.58,44a.73.73,0,0,0,1,.19.71.71,0,0,0,.3-.47.66.66,0,0,0-.11-.53L24.83,31.69l13-4A.72.72,0,0,0,38.35,26.81Z" transform="translate(-2.02 -8.61)"/></svg>