<svg xmlns="http://www.w3.org/2000/svg" width="24" height="24" fill="none" viewBox="0 0 24 24">
    <path stroke="#000" stroke-linecap="round" d="M6.69 18.282h9.862M19.985 18.085h1.866c.635 0 1.149-.529 1.149-1.18v-3.088c0-.554-.104-1.013-.454-1.46-.24-.306-2.25-2.583-3.215-3.536-.566-.595-1.341-.93-2.15-.93h-2.614V5.534c0-.441-.132-.798-.56-.798H1.776c-.429 0-.776.357-.776.798v11.752c0 .441.347.798.776.798h1.54"/>
    <path fill="#000" fill-rule="evenodd" d="M17.345 8.663h-1.109c-.244 0-.443.203-.443.452v2.227c0 .255.203.462.452.462h3.803c.257 0 .392-.313.219-.506L18.296 9.09c-.244-.273-.59-.428-.951-.428zm0 .57c.204 0 .4.088.539.242l1.571 1.76h-3.104V9.231h.994z" clip-rule="evenodd"/>
    <path fill-rule="evenodd" stroke="#000" d="M19.586 17.693c0 .867-.679 1.57-1.517 1.57-.838 0-1.517-.703-1.517-1.57 0-.867.679-1.57 1.517-1.57.838 0 1.517.703 1.517 1.57zM6.31 17.693c0 .867-.679 1.57-1.517 1.57-.838 0-1.517-.703-1.517-1.57 0-.867.68-1.57 1.517-1.57.838 0 1.517.703 1.517 1.57z" clip-rule="evenodd"/>
    <path stroke="#000" d="M14.567 5.116V18.4"/>
</svg>
