<svg xmlns="http://www.w3.org/2000/svg" width="76" height="20" viewBox="0 0 76 20">
    <g fill="none" fill-rule="evenodd">
        <g fill-rule="nonzero">
            <g>
                <g>
                    <g>
                        <g>
                            <g>
                                <path fill="#283B82" d="M8.942 16.116H3.146c-.396 0-.734-.289-.796-.68L.006.558C-.04.265.186 0 .484 0h2.767c.397 0 .734.288.796.68l.632 4.013c.061.393.4.682.795.682H7.31c3.818 0 6.022 1.849 6.597 5.513.26 1.604.011 2.863-.739 3.746-.824.968-2.285 1.48-4.225 1.48zm.67-5.434c-.318-2.081-1.907-2.081-3.444-2.081h-.874l.613 3.887c.037.235.24.408.478.408h.4c1.047 0 2.034 0 2.545-.597.304-.356.397-.885.281-1.617" transform="translate(-98 -387) translate(43 96) translate(24 277) translate(31.689 14) translate(0 .124) matrix(1 0 0 -1 0 16.117)"/>
                                <path fill="#283B82" d="M26.268 16.112h-2.775c-.237 0-.441-.173-.478-.408l-.122-.777-.195.282c-.6.873-1.94 1.165-3.278 1.165-3.067 0-5.687-2.326-6.197-5.587-.265-1.627.112-3.183 1.034-4.268.846-.997 2.056-1.413 3.496-1.413 2.472 0 3.842 1.59 3.842 1.59l-.124-.772c-.046-.295.18-.56.477-.56h2.5c.397 0 .733.289.796.682l1.5 9.508c.047.293-.18.558-.476.558zM22.4 10.705c-.267-1.587-1.526-2.652-3.131-2.652-.806 0-1.45.259-1.864.749-.41.487-.566 1.18-.436 1.952.25 1.573 1.53 2.674 3.11 2.674.789 0 1.43-.263 1.852-.757.423-.5.59-1.197.47-1.966" transform="translate(-98 -387) translate(43 96) translate(24 277) translate(31.689 14) translate(0 .124) matrix(1 0 0 -1 0 21.48)"/>
                                <path fill="#283B82" d="M41.05 19.876h-2.789c-.266 0-.516-.133-.667-.354l-3.847-5.672-1.63 5.45c-.103.341-.417.576-.773.576h-2.74c-.334 0-.565-.326-.46-.64l3.073-9.024-2.888-4.081c-.228-.322.001-.764.394-.764h2.785c.265 0 .512.13.662.346l9.277 13.403c.222.321-.006.76-.396.76" transform="translate(-98 -387) translate(43 96) translate(24 277) translate(31.689 14) translate(0 .124) matrix(1 0 0 -1 0 25.243)"/>
                                <path fill="#469BDB" d="M50.285 16.116h-5.797c-.396 0-.733-.289-.795-.68L41.35.558c-.047-.294.18-.558.476-.558H44.8c.276 0 .513.202.556.476l.665 4.217c.061.393.4.682.795.682h1.834c3.82 0 6.022 1.849 6.598 5.513.26 1.604.01 2.863-.74 3.746-.823.968-2.283 1.48-4.223 1.48zm.669-5.434c-.316-2.081-1.905-2.081-3.443-2.081h-.874l.615 3.887c.036.235.238.408.476.408h.401c1.046 0 2.034 0 2.544-.597.305-.356.397-.885.28-1.617" transform="translate(-98 -387) translate(43 96) translate(24 277) translate(31.689 14) translate(0 .124) matrix(1 0 0 -1 0 16.117)"/>
                                <path fill="#469BDB" d="M67.61 16.112h-2.774c-.238 0-.44-.173-.476-.408l-.123-.777-.195.282c-.6.873-1.94 1.165-3.277 1.165-3.068 0-5.686-2.326-6.197-5.587-.264-1.627.112-3.183 1.034-4.268.847-.997 2.056-1.413 3.496-1.413 2.471 0 3.841 1.59 3.841 1.59l-.123-.772c-.047-.295.18-.56.478-.56h2.5c.395 0 .732.289.794.682l1.501 9.508c.046.293-.181.558-.479.558zm-3.869-5.407c-.266-1.587-1.526-2.652-3.131-2.652-.805 0-1.45.259-1.864.749-.41.487-.565 1.18-.436 1.952.252 1.573 1.53 2.674 3.11 2.674.789 0 1.43-.263 1.852-.757.424-.5.592-1.197.47-1.966" transform="translate(-98 -387) translate(43 96) translate(24 277) translate(31.689 14) translate(0 .124) matrix(1 0 0 -1 0 21.48)"/>
                                <path fill="#469BDB" d="M70.882 15.707L68.503.558c-.046-.293.18-.558.477-.558h2.391c.398 0 .735.288.796.681l2.346 14.876c.047.293-.18.559-.476.559h-2.678c-.237 0-.44-.174-.477-.409" transform="translate(-98 -387) translate(43 96) translate(24 277) translate(31.689 14) translate(0 .124) matrix(1 0 0 -1 0 16.116)"/>
                            </g>
                        </g>
                    </g>
                </g>
            </g>
        </g>
    </g>
</svg>
