<?xml version="1.0" encoding="utf-8"?>
<!-- Generator: Adobe Illustrator 23.0.6, SVG Export Plug-In . SVG Version: 6.00 Build 0)  -->
<svg version="1.1" id="Layer_1" xmlns="http://www.w3.org/2000/svg" xmlns:xlink="http://www.w3.org/1999/xlink" x="0px" y="0px"
	 viewBox="0 0 60 50" style="enable-background:new 0 0 60 50;" xml:space="preserve">
<g>
	<g>
		<path d="M44.99,14.22c1.23,0.01,2.24,1.02,2.24,2.26L47.15,29.7c0,0,0,0,0,0.02l0,0.02l0,0c0,0.66-0.26,1.31-0.76,1.83
			L30.22,47.58c-0.64,0.63-1.48,0.95-2.31,0.94c-0.84,0-1.67-0.33-2.3-0.97L13.75,35.6c-1.27-1.28-1.26-3.35,0.02-4.61l16.16-16.02
			c0.36-0.4,0.82-0.63,1.32-0.73l0,0l0,0C31.57,14.18,44.99,14.22,44.99,14.22 M45,12.73L45,12.73
			c-13.56-0.04-13.84,0.02-14.02,0.06c-0.8,0.16-1.53,0.53-2.11,1.1L12.7,29.9c-1.86,1.84-1.87,4.86-0.03,6.72l11.86,11.97
			c0.89,0.9,2.08,1.4,3.35,1.41c1.27,0.01,2.47-0.49,3.37-1.38l16.16-16c0.76-0.75,1.18-1.72,1.21-2.78l0,0l0-0.08L48.7,16.5
			C48.73,14.43,47.07,12.74,45,12.73L45,12.73z"/>
	</g>
	<g>
		<path d="M34.18,33.77c-1.32-0.01-2.39-1.09-2.39-2.41c0.01-1.32,1.09-2.39,2.41-2.39c1.32,0.01,2.39,1.09,2.39,2.41
			S35.5,33.77,34.18,33.77z M34.2,30.47c-0.5,0-0.91,0.4-0.91,0.9c0,0.5,0.4,0.91,0.9,0.91c0.5,0,0.91-0.4,0.91-0.9
			C35.1,30.88,34.7,30.47,34.2,30.47z"/>
	</g>
	<g>
		<path d="M26.19,33.28c-1.32-0.01-2.39-1.09-2.38-2.41c0.01-1.32,1.09-2.39,2.41-2.39c1.32,0.01,2.39,1.09,2.39,2.41
			C28.59,32.21,27.51,33.28,26.19,33.28z M26.2,29.97c-0.5,0-0.91,0.4-0.91,0.9c0,0.5,0.4,0.91,0.9,0.91c0.5,0,0.91-0.4,0.91-0.9
			C27.11,30.38,26.7,29.98,26.2,29.97z"/>
	</g>
	<rect x="25.98" y="30.61" transform="matrix(4.562549e-03 -1 1 4.562549e-03 -1.2161 61.4884)" width="8.59" height="1.49"/>
	<g>
		<path d="M42.65,20.96c-1.32-0.01-2.39-1.09-2.38-2.41c0.01-1.32,1.09-2.39,2.41-2.39c1.32,0.01,2.39,1.09,2.39,2.41
			C45.06,19.89,43.97,20.97,42.65,20.96z M42.67,17.66c-0.5,0-0.91,0.4-0.91,0.9c0,0.5,0.4,0.91,0.9,0.91c0.5,0,0.91-0.4,0.91-0.9
			C43.57,18.07,43.17,17.66,42.67,17.66z"/>
	</g>
</g>
</svg>
