<svg xmlns="http://www.w3.org/2000/svg" width="48" height="49" fill="none" viewBox="0 0 48 49">
    <path stroke="#000" stroke-linecap="round" stroke-width="1.62" d="M14.828 34.38H31.862M37.792 34.056h3.224c1.095 0 1.984-.874 1.984-1.952v-5.1c0-.915-.18-1.674-.785-2.413-.413-.504-3.886-4.267-5.553-5.84-.977-.984-2.316-1.539-3.714-1.539h-4.515V13.32c0-.728-.227-1.318-.967-1.318H6.34c-.74 0-1.34.59-1.34 1.318v19.418c0 .728.6 1.318 1.34 1.318H9"/>
    <path fill="#000" fill-rule="evenodd" d="M33.232 18.488h-1.915c-.422 0-.765.335-.765.748v3.679c0 .421.35.763.78.763h6.57c.444 0 .677-.516.377-.836l-3.405-3.646c-.42-.45-1.017-.708-1.642-.708zm0 .941c.353 0 .693.147.93.401l2.715 2.907h-5.362v-3.308h1.717z" clip-rule="evenodd"/>
    <path fill-rule="evenodd" stroke="#000" stroke-width="1.62" d="M37.103 33.407c0 1.434-1.173 2.595-2.62 2.595-1.448 0-2.621-1.162-2.621-2.595 0-1.432 1.173-2.594 2.62-2.594 1.448 0 2.621 1.162 2.621 2.595zM14.172 33.407c0 1.434-1.173 2.595-2.62 2.595s-2.62-1.162-2.62-2.595c0-1.432 1.173-2.594 2.62-2.594s2.62 1.162 2.62 2.595z" clip-rule="evenodd"/>
    <path stroke="#000" stroke-width="1.62" d="M28.433 12.629v21.946"/>
</svg>
