<svg xmlns="http://www.w3.org/2000/svg" width="24" height="24" viewBox="0 0 24 24">
    <g fill="none" fill-rule="evenodd">
        <g fill="#000">
            <g>
                <path d="M12.085 18.622l.22-.278c.186-.236.381-.49.582-.755.635-.842 1.23-1.674 1.762-2.471.368-.55.7-1.073.992-1.565 1.055-1.774 1.559-3.056 1.559-3.873 0-2.662-2.307-4.88-5.2-4.88-2.893 0-5.2 2.218-5.2 4.88 0 .817.504 2.099 1.56 3.873.292.492.623 1.014.99 1.565.534.797 1.128 1.63 1.763 2.47.2.266.396.52.581.756l.22.278.086.105.085-.105zm.85.216l-.228.287L12 20s-1.32-1.657-1.525-1.929c-.638-.844-1.242-1.69-1.79-2.509-.373-.56-.712-1.093-1.013-1.6C6.566 12.102 6 10.694 6 9.68 6 6.613 8.626 4 12 4s6 2.613 6 5.68c0 1.014-.566 2.423-1.672 4.282-.3.507-.64 1.04-1.013 1.6-.548.82-1.152 1.665-1.79 2.51-.205.27-.404.528-.59.766z" transform="translate(-85 -93) translate(85 93)"/>
                <path d="M12 12.143c1.183 0 2.143-.96 2.143-2.143 0-1.183-.96-2.143-2.143-2.143-1.183 0-2.143.96-2.143 2.143 0 1.183.96 2.143 2.143 2.143zM12 13c-1.657 0-3-1.343-3-3s1.343-3 3-3 3 1.343 3 3-1.343 3-3 3z" transform="translate(-85 -93) translate(85 93)"/>
            </g>
        </g>
    </g>
</svg>
