<svg xmlns="http://www.w3.org/2000/svg" width="24" height="24" viewBox="0 0 24 24">
    <g fill-rule="evenodd">
        <path d="M18.633 6.185c3.257.635 5.804 3.182 6.44 6.44.078.406-.187.8-.593.88-.407.079-.8-.187-.88-.593-.519-2.658-2.597-4.736-5.255-5.255-.406-.08-.671-.473-.592-.88.073-.372.41-.626.778-.605l.102.013zM18.572.255c6.535.726 11.696 5.88 12.43 12.415.047.411-.25.782-.661.829-.412.046-.783-.25-.83-.662C28.857 7 24.246 2.394 18.407 1.745c-.412-.045-.708-.416-.662-.828.041-.377.357-.658.726-.667l.102.005zM8.557 2.078H4.123c-1.042.002-2.035.44-2.737 1.21C.683 4.057.336 5.086.43 6.123c.5 4.705 2.096 9.214 4.662 13.174 2.328 3.664 5.439 6.776 9.108 9.107 3.937 2.553 8.425 4.15 13.096 4.657 1.054.096 2.086-.253 2.856-.96.77-.706 1.207-1.704 1.202-2.749v-4.438c.047-1.865-1.325-3.484-3.19-3.747-1.373-.181-2.713-.515-4.003-.996l-.204-.07c-1.302-.405-2.73-.063-3.709.905l-1.474 1.473-.357-.22c-2.93-1.837-5.406-4.313-7.244-7.243l-.219-.359 1.47-1.469c.97-.981 1.313-2.41.908-3.713l-.07-.205c-.48-1.288-.815-2.628-.995-3.993-.261-1.851-1.849-3.217-3.711-3.199zm-4.433 1.5h4.447c1.11-.01 2.056.803 2.211 1.902.194 1.47.555 2.92 1.076 4.317.305.81.11 1.72-.496 2.333l-1.877 1.877c-.24.24-.289.608-.122.901 2.174 3.824 5.34 6.99 9.163 9.163.293.167.662.117.9-.121l1.88-1.88c.611-.604 1.522-.798 2.33-.495 1.398.522 2.848.883 4.325 1.078 1.105.156 1.923 1.12 1.895 2.243v4.46c.002.625-.258 1.22-.717 1.64-.458.42-1.073.629-1.693.573-4.425-.481-8.688-1.998-12.434-4.427-3.49-2.217-6.443-5.17-8.657-8.655-2.441-3.768-3.958-8.052-4.432-12.51-.054-.607.152-1.22.57-1.678.419-.458 1.01-.72 1.631-.72z" transform="translate(8 7)"></path>
    </g>
</svg>
