<svg xmlns="http://www.w3.org/2000/svg" width="18" height="19" viewBox="0 0 18 19">
    <g fill="none" fill-rule="evenodd">
        <g fill="#1E1E1E" fill-rule="nonzero">
            <g>
                <g>
                    <path d="M10.884.207c-.93 0-1.756.502-2.247 1.264C8.175.951 7.523.62 6.802.62c-1.388 0-2.526 1.209-2.526 2.684 0 .532.147 1.028.4 1.446H.584c-.305 0-.583.295-.583.62v3.717c0 .324.278.62.583.62h.583v8.467c0 .324.278.62.583.62h13.994c.305 0 .583-.296.583-.62V9.707h.583c.305 0 .583-.296.583-.62V5.37c0-.325-.278-.62-.583-.62h-3.796c.31-.469.492-1.04.492-1.652 0-1.59-1.225-2.891-2.721-2.891zm0 1.239c.866 0 1.555.732 1.555 1.652 0 .92-.69 1.652-1.555 1.652H9.329V3.098c0-.92.69-1.652 1.555-1.652zm-4.082.413c.759 0 1.36.64 1.36 1.445V4.75h-1.36c-.758 0-1.36-.64-1.36-1.446 0-.805.602-1.445 1.36-1.445zm-5.636 4.13h6.997v2.478H1.166V5.99zm8.163 0h6.997v2.478H9.329V5.99zM2.332 9.707h5.83v7.847h-5.83V9.707zm6.997 0h5.83v7.847H9.33V9.707z" transform="translate(-999 -802) translate(995 680) translate(4 122)"/>
                </g>
            </g>
        </g>
    </g>
</svg>
