<svg xmlns="http://www.w3.org/2000/svg" width="38" height="16" viewBox="0 0 38 16">
    <g fill="none" fill-rule="evenodd">
        <g fill="#000" fill-rule="nonzero">
            <g>
                <g>
                    <g>
                        <path d="M7.282 2.043c.445-.545.747-1.278.667-2.026-.651.032-1.447.421-1.907.967-.413.468-.779 1.23-.684 1.948.732.062 1.462-.359 1.924-.889M7.94 3.072c-1.061-.062-1.964.59-2.472.59-.507 0-1.284-.56-2.124-.544-1.094.016-2.108.621-2.663 1.585C-.46 6.63.38 9.489 1.49 11.058c.539.777 1.188 1.632 2.044 1.601.809-.03 1.126-.513 2.109-.513.982 0 1.267.513 2.123.498.888-.016 1.443-.777 1.982-1.554.618-.886.871-1.74.887-1.787-.016-.016-1.711-.653-1.727-2.565-.016-1.6 1.331-2.361 1.395-2.408-.761-1.103-1.95-1.227-2.362-1.258" transform="translate(-1045 -656) translate(956 640) translate(25 16) translate(64)"/>
                        <g>
                            <path d="M4.627.29c2.309 0 3.916 1.56 3.916 3.83 0 2.277-1.64 3.845-3.974 3.845H2.013v3.982H.167V.29h4.46zM2.013 6.446h2.12c1.607 0 2.522-.848 2.522-2.318 0-1.47-.915-2.31-2.514-2.31H2.013v4.628zM9.026 9.532c0-1.487 1.162-2.4 3.224-2.512l2.374-.138v-.654c0-.945-.651-1.51-1.74-1.51-1.03 0-1.673.484-1.83 1.243H9.372c.1-1.535 1.435-2.666 3.578-2.666 2.103 0 3.447 1.091 3.447 2.796v5.856H14.69V10.55h-.041c-.503.945-1.6 1.543-2.737 1.543-1.699 0-2.886-1.034-2.886-2.561zm5.598-.768v-.67l-2.135.13c-1.064.072-1.666.532-1.666 1.26 0 .743.627 1.227 1.583 1.227 1.245 0 2.218-.84 2.218-1.947zM18.008 15.074V13.66c.132.032.429.032.577.032.825 0 1.27-.34 1.542-1.212 0-.016.157-.517.157-.525L17.15 3.45h1.929l2.193 6.915h.033l2.193-6.915h1.88l-3.249 8.942c-.741 2.06-1.599 2.723-3.396 2.723-.149 0-.594-.016-.726-.04z" transform="translate(-1045 -656) translate(956 640) translate(25 16) translate(64) translate(12.562 .615)"/>
                        </g>
                    </g>
                </g>
            </g>
        </g>
    </g>
</svg>
