<svg xmlns="http://www.w3.org/2000/svg" width="24" height="24" viewBox="0 0 24 24">
    <g fill="none" fill-rule="evenodd">
        <g fill="#FFF">
            <path d="M12.007 19.955c0 .422-.244.804-.626.983-.148.07-.307.103-.464.103-.25 0-.496-.085-.695-.25l-5.959-4.92H1.09c-.602 0-1.09-.486-1.09-1.086v-4.327c0-.6.488-1.086 1.09-1.086h3.174l5.958-4.92c.325-.27.777-.327 1.159-.147.382.179.626.562.626.983v14.667zm4.189-1.697c-.027.002-.052.003-.079.003-.288 0-.565-.113-.77-.318l-.146-.146c-.382-.38-.427-.982-.105-1.415.816-1.096 1.247-2.396 1.247-3.76 0-1.467-.49-2.843-1.415-3.979-.352-.432-.32-1.06.075-1.452l.146-.146c.217-.217.51-.335.825-.316.307.015.594.16.79.397 1.283 1.566 1.962 3.466 1.962 5.496 0 1.89-.6 3.69-1.735 5.203-.19.252-.48.41-.795.433zm4.506 3.357c-.197.232-.482.371-.788.384L19.87 22c-.289 0-.566-.114-.771-.318l-.143-.143c-.4-.398-.427-1.035-.064-1.467 1.758-2.083 2.726-4.729 2.726-7.45 0-2.83-1.036-5.556-2.918-7.673-.382-.43-.362-1.08.044-1.486l.143-.143c.212-.212.487-.33.803-.32.3.01.584.141.783.365C22.747 5.917 24 9.205 24 12.622c0 3.288-1.17 6.481-3.298 8.993z"/>
        </g>
    </g>
</svg>
