<svg xmlns="http://www.w3.org/2000/svg" width="24" height="24" viewBox="0 0 24 24">
    <g fill="none" fill-rule="evenodd">
        <g fill="#FFF">
            <path d="M16.007 19.955c0 .422-.244.804-.626.983-.148.07-.307.103-.464.103-.25 0-.496-.085-.695-.25l-5.959-4.92H5.09c-.602 0-1.09-.486-1.09-1.086v-4.327c0-.6.488-1.086 1.09-1.086h3.174l5.958-4.92c.325-.27.777-.327 1.159-.147.382.179.626.562.626.983v14.667z"/>
            <path d="M3.293 3.293c.36-.36.928-.388 1.32-.083l.094.083 16.97 16.97c.391.391.391 1.024 0 1.415-.36.36-.927.388-1.32.083l-.094-.083-16.97-16.97c-.39-.391-.39-1.025 0-1.415z"/>
        </g>
    </g>
</svg>
