<?xml version="1.0" encoding="UTF-8"?>
<svg width="32px" height="32px" viewBox="0 0 32 32" version="1.1" xmlns="http://www.w3.org/2000/svg" xmlns:xlink="http://www.w3.org/1999/xlink">
    <!-- Generator: Sketch 64 (93537) - https://sketch.com -->
    <title>icon/nav/close/large</title>
    <desc>Created with Sketch.</desc>
    <g id="icon/nav/close/large" stroke="none" stroke-width="1" fill="none" fill-rule="evenodd">
        <path d="M7.64644661,7.64644661 C7.82001296,7.47288026 8.08943736,7.45359511 8.2843055,7.58859116 L8.35355339,7.64644661 L16,15.293 L23.6464466,7.64644661 C23.8417088,7.45118446 24.1582912,7.45118446 24.3535534,7.64644661 C24.5271197,7.82001296 24.5464049,8.08943736 24.4114088,8.2843055 L24.3535534,8.35355339 L16.707,16 L24.3535534,23.6464466 L24.4114088,23.7156945 C24.5464049,23.9105626 24.5271197,24.179987 24.3535534,24.3535534 C24.179987,24.5271197 23.9105626,24.5464049 23.7156945,24.4114088 L23.6464466,24.3535534 L16,16.707 L8.35355339,24.3535534 C8.15829124,24.5488155 7.84170876,24.5488155 7.64644661,24.3535534 C7.47288026,24.179987 7.45359511,23.9105626 7.58859116,23.7156945 L7.64644661,23.6464466 L15.293,16 L7.64644661,8.35355339 L7.58859116,8.2843055 C7.45359511,8.08943736 7.47288026,7.82001296 7.64644661,7.64644661 Z" id="Path" fill="#000000" fill-rule="nonzero"></path>
    </g>
</svg>