<svg xmlns="http://www.w3.org/2000/svg" width="48" height="49" fill="none" viewBox="0 0 48 49">
    <path fill="#000" fill-rule="evenodd" d="M37.6 9.252H10.4c-2.284 0-4.15 1.866-4.15 4.15v20.4c0 2.284 1.866 4.15 4.15 4.15h27.2c2.284 0 4.15-1.866 4.15-4.15v-20.4c0-2.284-1.866-4.15-4.15-4.15zm-27.2 1.5h27.2c1.456 0 2.65 1.194 2.65 2.65v20.4c0 1.456-1.194 2.65-2.65 2.65H10.4c-1.456 0-2.65-1.194-2.65-2.65v-20.4c0-1.456 1.194-2.65 2.65-2.65z" clip-rule="evenodd"/>
    <path fill="#000" fill-rule="evenodd" d="M40.57 12.787c.34-.237.807-.155 1.044.185.216.308.168.723-.098.974l-.086.07-17 11.9c-.226.159-.517.178-.76.06l-.1-.06-17-11.9c-.34-.237-.422-.705-.184-1.044.216-.309.622-.405.949-.241l.095.056L24 24.386l16.57-11.598z" clip-rule="evenodd"/>
</svg>
