<svg xmlns="http://www.w3.org/2000/svg" width="24" height="24" viewBox="0 0 24 24">
    <g fill="none" fill-rule="evenodd">
        <path d="M0 0h24v24H0z"/>
        <path fill="#000" fill-rule="nonzero" d="M11.825 17.794l.192-.243a46.29 46.29 0 0 0 2.051-2.823c.322-.482.612-.938.868-1.37.923-1.552 1.364-2.673 1.364-3.388 0-2.33-2.019-4.27-4.55-4.27-2.531 0-4.55 1.94-4.55 4.27 0 .715.44 1.836 1.364 3.389.256.43.546.887.868 1.369a46.29 46.29 0 0 0 2.243 3.066l.075.092.075-.092zm.375.65l-.094.116h-.712l-.094-.117.45-.557.45.557zm.368-.46l-.199.25-.619.766-.619-.766a46.479 46.479 0 0 1-.715-.922 47.002 47.002 0 0 1-1.566-2.195c-.327-.49-.624-.957-.887-1.4C6.995 12.09 6.5 10.857 6.5 9.97 6.5 7.287 8.798 5 11.75 5S17 7.287 17 9.97c0 .887-.495 2.12-1.463 3.747-.263.443-.56.91-.887 1.4a47.002 47.002 0 0 1-2.082 2.866z"/>
        <path fill="#000" d="M11.75 12.125a1.875 1.875 0 1 0 0-3.75 1.875 1.875 0 0 0 0 3.75zm0 .75a2.625 2.625 0 1 1 0-5.25 2.625 2.625 0 0 1 0 5.25z"/>
    </g>
</svg>
