<?xml version="1.0" encoding="UTF-8"?>
<svg width="18px" height="18px" viewBox="0 0 18 18" version="1.1" xmlns="http://www.w3.org/2000/svg" xmlns:xlink="http://www.w3.org/1999/xlink">
    <!-- Generator: Sketch 63.1 (92452) - https://sketch.com -->
    <g id="Symbols" stroke="none" stroke-width="1" fill="none" fill-rule="evenodd">
        <g id="icon/utility/thumb/up-copy" transform="translate(1.000000, 1.000000)">
            <path d="M9.6,5.6 L9.6,2.4 C9.6,1.0745166 8.5254834,-3.55271368e-16 7.2,-3.55271368e-16 L4,7.2 L4,16.0001037 L13.024,16.0001037 C13.8218294,16.0090195 14.5043689,15.4288609 14.624,14.64 L15.728,7.44 C15.7984448,6.97588426 15.6615177,6.50424704 15.3534868,6.15001147 C15.0454559,5.7957759 14.5974014,5.59468428 14.128,5.6 L9.6,5.6 Z M4,16 L1.6,16 C0.7163444,16 0,15.2836556 0,14.4 L0,8.8 C0,7.9163444 0.7163444,7.2 1.6,7.2 L4,7.2" id="Shape" stroke="#000000" fill="#000000" stroke-linecap="round" stroke-linejoin="round"></path>
            <line x1="3" y1="7" x2="3" y2="16" id="Line-2" stroke="#FFFFFF" stroke-width="2" stroke-linecap="square"></line>
        </g>
    </g>
</svg>