<svg xmlns="http://www.w3.org/2000/svg" width="24" height="24" viewBox="0 0 24 24">
    <path fill-rule="evenodd" d="M15.93 4c2.812 0 3.985 1.365 4.495 3.66.332 1.488-.452 3.979-2.09 6.11-.459.598-1.105 1.314-1.907 2.125-.244.248-.502.503-.77.764-.74.718-1.531 1.45-2.323 2.159-.276.248-.534.475-.764.677l-.292.253-.294.252-.28-.268-.24-.23-.63-.607c-.651-.63-1.303-1.266-1.911-1.868l-.153-.152c-1.209-1.2-2.066-2.087-2.45-2.554-.098-.12-.497-.594-.48-.574-.213-.254-.38-.46-.542-.671C4.129 11.552 3.5 10.072 3.5 8.238 3.5 5.831 4.84 4 7.697 4c1.86 0 3.165.654 3.96 1.77.133.186.248.381.345.579C12.652 5.094 14.012 4 15.93 4zm0 .88c-1.269 0-2.183.517-2.808 1.401-.429.606-.69 1.391-.69 1.735h-.864c0-.438-.196-1.147-.61-1.73-.63-.883-1.673-1.405-3.26-1.405-2.315 0-3.333 1.39-3.333 3.357 0 1.61.554 2.913 1.615 4.295.154.201.314.398.52.643-.021-.024.382.455.484.58.358.435 1.205 1.312 2.39 2.488l.077.076.076.075c.606.6 1.255 1.234 1.904 1.862l.584.563c.226-.198.478-.42.75-.663.782-.702 1.565-1.426 2.295-2.135.265-.257.518-.508.759-.751.777-.788 1.402-1.479 1.835-2.043 1.49-1.94 2.194-4.177 1.928-5.374-.432-1.938-1.321-2.973-3.652-2.973z"/>
</svg>
