<?xml version="1.0" encoding="UTF-8"?>
<svg width="24px" height="24px" viewBox="0 0 24 24" version="1.1" xmlns="http://www.w3.org/2000/svg" xmlns:xlink="http://www.w3.org/1999/xlink">
    <!-- Generator: Sketch 64 (93537) - https://sketch.com -->
    <title>icon/flag/usa</title>
    <desc>Created with Sketch.</desc>
    <g id="icon/flag/usa" stroke="none" stroke-width="1" fill="none" fill-rule="evenodd">
        <g id="US" transform="translate(2.000000, 6.000000)" fill-rule="nonzero">
            <g id="Group">
                <path d="M0,0 L19.9782996,0 L19.9782996,0.882368316 L0,0.882368316 L0,0 Z M0,1.76473663 L19.9782996,1.76473663 L19.9782996,2.64710495 L0,2.64710495 L0,1.76473663 Z M0,3.52947326 L19.9782996,3.52947326 L19.9782996,4.41184158 L0,4.41184158 L0,3.52947326 Z M0,5.2942099 L19.9782996,5.2942099 L19.9782996,6.17657821 L0,6.17657821 L0,5.2942099 Z M0,7.05894653 L19.9782996,7.05894653 L19.9782996,7.94131485 L0,7.94131485 L0,7.05894653 Z M0,8.82368316 L19.9782996,8.82368316 L19.9782996,9.70605148 L0,9.70605148 L0,8.82368316 Z M0,10.5884198 L19.9782996,10.5884198 L19.9782996,11.4707881 L0,11.4707881 L0,10.5884198 Z" id="Shape" fill="#BD3D44"></path>
                <path d="M0,0.882368316 L19.9782996,0.882368316 L19.9782996,1.76473663 L0,1.76473663 L0,0.882368316 Z M0,2.64710495 L19.9782996,2.64710495 L19.9782996,3.52947326 L0,3.52947326 L0,2.64710495 Z M0,4.41184158 L19.9782996,4.41184158 L19.9782996,5.2942099 L0,5.2942099 L0,4.41184158 Z M0,6.17657821 L19.9782996,6.17657821 L19.9782996,7.05894653 L0,7.05894653 L0,6.17657821 Z M0,7.94131485 L19.9782996,7.94131485 L19.9782996,8.82368316 L0,8.82368316 L0,7.94131485 Z M0,9.70605148 L19.9782996,9.70605148 L19.9782996,10.5884198 L0,10.5884198 L0,9.70605148 Z" id="Shape" fill="#FFFFFF"></path>
            </g>
            <polygon id="Path" fill="#192F5D" points="0 0 7.99123768 0 7.99123768 6.1764662 0 6.1764662"></polygon>
            <g id="Group" transform="translate(0.349124, 0.246440)" fill="#FFFFFF">
                <path d="M0.316819551,0.0179229314 L0.389519441,0.262033257 L0.624828861,0.262033257 L0.434453724,0.412921936 L0.507174151,0.657032261 L0.316799014,0.506165986 L0.126464951,0.657032261 L0.199164841,0.412921936 L0.00881024096,0.262033257 L0.244099124,0.262033257 L0.316819551,0.0179229314 Z M1.64868565,0.0179229314 L1.72140608,0.262033257 L1.9567155,0.262033257 L1.76634036,0.412921936 L1.83906079,0.657032261 L1.64868565,0.506165986 L1.45835159,0.657032261 L1.53105148,0.412921936 L1.34069688,0.262033257 L1.57598576,0.262033257 L1.64868565,0.0179229314 Z M2.98061336,0.0179229314 L3.05331325,0.262033257 L3.28862267,0.262033257 L3.09824754,0.412921936 L3.17096796,0.657032261 L2.98061336,0.506165986 L2.79025876,0.657032261 L2.86295865,0.412921936 L2.67260405,0.262033257 L2.90791347,0.262033257 L2.98061336,0.0179229314 Z M4.31245893,0.0179229314 L4.38515882,0.262033257 L4.6204477,0.262033257 L4.4300931,0.412921936 L4.50279299,0.657032261 L4.31245893,0.506165986 L4.12208379,0.657032261 L4.19480422,0.412921936 L4.00442908,0.262033257 L4.2397385,0.262033257 L4.31245893,0.0179229314 Z M5.6443661,0.0179229314 L5.71706599,0.262033257 L5.95237541,0.262033257 L5.76200027,0.412921936 L5.8347207,0.657032261 L5.64434556,0.506165986 L5.4540115,0.657032261 L5.52671139,0.412921936 L5.33635679,0.262033257 L5.57164567,0.262033257 L5.6443661,0.0179229314 Z M6.97627327,0.0179229314 L7.04897317,0.262033257 L7.28428258,0.262033257 L7.09390745,0.412921936 L7.16662788,0.657032261 L6.97627327,0.506165986 L6.78589814,0.657032261 L6.8586391,0.412921936 L6.66826396,0.262033257 L6.90357338,0.262033257 L6.97627327,0.0179229314 Z M0.982783406,0.635591955 L1.0554833,0.87970228 L1.29079272,0.87970228 L1.10041758,1.03056856 L1.17315854,1.27470128 L0.982783406,1.12383501 L0.792428806,1.27470128 L0.865128697,1.03056856 L0.674774096,0.87970228 L0.910083516,0.87970228 L0.982783406,0.635591955 Z M2.31462897,0.635591955 L2.38732886,0.87970228 L2.62261774,0.87970228 L2.43226314,1.03056856 L2.50496303,1.27470128 L2.31462897,1.12383501 L2.12425383,1.27470128 L2.19697426,1.03056856 L2.00659912,0.87970228 L2.24190854,0.87970228 L2.31462897,0.635591955 Z M3.64653614,0.635591955 L3.71923604,0.87970228 L3.95454545,0.87970228 L3.76417032,1.03056856 L3.83689074,1.27470128 L3.64651561,1.12383501 L3.45618154,1.27470128 L3.52888143,1.03056856 L3.33852683,0.87970228 L3.57381572,0.87970228 L3.64653614,0.635591955 Z M4.97844332,0.635591955 L5.05114321,0.87970228 L5.28645263,0.87970228 L5.09607749,1.03056856 L5.16879792,1.27470128 L4.97844332,1.12383501 L4.78806818,1.27470128 L4.86082968,1.03056856 L4.67045455,0.87970228 L4.90576396,0.87970228 L4.97844332,0.635591955 Z M6.31028888,0.635591955 L6.38298877,0.87970228 L6.61827766,0.87970228 L6.42792306,1.03056856 L6.50062295,1.27470128 L6.31028888,1.12383501 L6.11991375,1.27470128 L6.19263417,1.03056856 L6.00225904,0.87970228 L6.23756846,0.87970228 L6.31028888,0.635591955 Z M0.316819551,1.25323857 L0.389519441,1.4973489 L0.624828861,1.4973489 L0.434453724,1.64823758 L0.507174151,1.8923479 L0.316799014,1.74148163 L0.126464951,1.8923479 L0.199164841,1.64823758 L0.00881024096,1.4973489 L0.244099124,1.4973489 L0.316819551,1.25323857 Z M1.64868565,1.25323857 L1.72140608,1.4973489 L1.9567155,1.4973489 L1.76634036,1.64823758 L1.83906079,1.8923479 L1.64868565,1.74148163 L1.45835159,1.8923479 L1.53105148,1.64823758 L1.34069688,1.4973489 L1.57598576,1.4973489 L1.64868565,1.25323857 Z M2.98061336,1.25323857 L3.05331325,1.4973489 L3.28862267,1.4973489 L3.09824754,1.64823758 L3.17096796,1.8923479 L2.98061336,1.74148163 L2.79025876,1.8923479 L2.86295865,1.64823758 L2.67260405,1.4973489 L2.90791347,1.4973489 L2.98061336,1.25323857 Z M4.31245893,1.25323857 L4.38515882,1.4973489 L4.6204477,1.4973489 L4.4300931,1.64823758 L4.50279299,1.8923479 L4.31245893,1.74148163 L4.12208379,1.8923479 L4.19480422,1.64823758 L4.00442908,1.4973489 L4.2397385,1.4973489 L4.31245893,1.25323857 Z M5.6443661,1.25323857 L5.71706599,1.4973489 L5.95237541,1.4973489 L5.76200027,1.64823758 L5.8347207,1.8923479 L5.64434556,1.74148163 L5.4540115,1.8923479 L5.52671139,1.64823758 L5.33635679,1.4973489 L5.57164567,1.4973489 L5.6443661,1.25323857 Z M6.97627327,1.25323857 L7.04897317,1.4973489 L7.28428258,1.4973489 L7.09390745,1.64823758 L7.16662788,1.8923479 L6.97627327,1.74148163 L6.78589814,1.8923479 L6.8586391,1.64823758 L6.66826396,1.4973489 L6.90357338,1.4973489 L6.97627327,1.25323857 Z M0.982783406,1.87088519 L1.0554833,2.11501792 L1.29079272,2.11501792 L1.10041758,2.2658842 L1.17315854,2.51001693 L0.982783406,2.35915065 L0.792428806,2.51001693 L0.865128697,2.2658842 L0.674774096,2.11501792 L0.910083516,2.11501792 L0.982783406,1.87088519 Z M2.31462897,1.87088519 L2.38732886,2.11501792 L2.62261774,2.11501792 L2.43226314,2.2658842 L2.50496303,2.51001693 L2.31462897,2.35915065 L2.12425383,2.51001693 L2.19697426,2.2658842 L2.00659912,2.11501792 L2.24190854,2.11501792 L2.31462897,1.87088519 Z M3.64653614,1.87088519 L3.71923604,2.11501792 L3.95454545,2.11501792 L3.76417032,2.2658842 L3.83689074,2.51001693 L3.64651561,2.35915065 L3.45618154,2.51001693 L3.52888143,2.2658842 L3.33852683,2.11501792 L3.57381572,2.11501792 L3.64653614,1.87088519 Z M4.97844332,1.87088519 L5.05114321,2.11501792 L5.28645263,2.11501792 L5.09607749,2.2658842 L5.16879792,2.51001693 L4.97844332,2.35915065 L4.78806818,2.51001693 L4.86080915,2.2658842 L4.67043401,2.11501792 L4.90574343,2.11501792 L4.97844332,1.87088519 Z M6.31028888,1.87088519 L6.38298877,2.11501792 L6.61827766,2.11501792 L6.42792306,2.2658842 L6.50062295,2.51001693 L6.31028888,2.35915065 L6.11991375,2.51001693 L6.19263417,2.2658842 L6.00225904,2.11501792 L6.23756846,2.11501792 L6.31028888,1.87088519 Z M0.316819551,2.48855422 L0.389519441,2.73266454 L0.624828861,2.73266454 L0.434453724,2.88355322 L0.507174151,3.12766355 L0.316799014,2.97679727 L0.126464951,3.12766355 L0.199164841,2.88355322 L0.00881024096,2.73266454 L0.244099124,2.73266454 L0.316819551,2.48855422 Z M1.64868565,2.48855422 L1.72140608,2.73266454 L1.9567155,2.73266454 L1.76634036,2.88355322 L1.83906079,3.12766355 L1.64868565,2.97679727 L1.45835159,3.12766355 L1.53105148,2.88355322 L1.34069688,2.73266454 L1.57598576,2.73266454 L1.64868565,2.48855422 Z M2.98061336,2.48855422 L3.05331325,2.73266454 L3.28862267,2.73266454 L3.09824754,2.88355322 L3.17096796,3.12766355 L2.98061336,2.97679727 L2.79025876,3.12766355 L2.86295865,2.88355322 L2.67260405,2.73266454 L2.90791347,2.73266454 L2.98061336,2.48855422 Z M4.31245893,2.48855422 L4.38515882,2.73266454 L4.6204477,2.73266454 L4.4300931,2.88355322 L4.50279299,3.12766355 L4.31245893,2.97679727 L4.12208379,3.12766355 L4.19480422,2.88355322 L4.00442908,2.73266454 L4.2397385,2.73266454 L4.31245893,2.48855422 Z M5.6443661,2.48855422 L5.71706599,2.73266454 L5.95237541,2.73266454 L5.76200027,2.88355322 L5.8347207,3.12766355 L5.64434556,2.97679727 L5.4540115,3.12766355 L5.52671139,2.88355322 L5.33635679,2.73266454 L5.57164567,2.73266454 L5.6443661,2.48855422 Z M6.97627327,2.48855422 L7.04897317,2.73266454 L7.28428258,2.73266454 L7.09390745,2.88355322 L7.16662788,3.12766355 L6.97627327,2.97679727 L6.78589814,3.12766355 L6.8586391,2.88355322 L6.66826396,2.73266454 L6.90357338,2.73266454 L6.97627327,2.48855422 Z M0.982783406,3.10620084 L1.0554833,3.35033357 L1.29079272,3.35033357 L1.10041758,3.50119984 L1.17315854,3.74533257 L0.982783406,3.59446629 L0.792428806,3.74533257 L0.865128697,3.50119984 L0.674774096,3.35033357 L0.910083516,3.35033357 L0.982783406,3.10620084 Z M2.31462897,3.10620084 L2.38732886,3.35033357 L2.62261774,3.35033357 L2.43226314,3.50119984 L2.50496303,3.74533257 L2.31462897,3.59446629 L2.12425383,3.74533257 L2.19697426,3.50119984 L2.00659912,3.35033357 L2.24190854,3.35033357 L2.31462897,3.10620084 Z M3.64653614,3.10620084 L3.71923604,3.35033357 L3.95454545,3.35033357 L3.76417032,3.50119984 L3.83689074,3.74533257 L3.64651561,3.59446629 L3.45618154,3.74533257 L3.52888143,3.50119984 L3.33852683,3.35033357 L3.57381572,3.35033357 L3.64653614,3.10620084 Z M4.97844332,3.10620084 L5.05114321,3.35033357 L5.28645263,3.35033357 L5.09607749,3.50119984 L5.16879792,3.74533257 L4.97844332,3.59446629 L4.78806818,3.74533257 L4.86080915,3.50119984 L4.67043401,3.35033357 L4.90574343,3.35033357 L4.97844332,3.10620084 Z M6.31028888,3.10620084 L6.38298877,3.35033357 L6.61827766,3.35033357 L6.42792306,3.50119984 L6.50062295,3.74533257 L6.31028888,3.59446629 L6.11991375,3.74533257 L6.19263417,3.50119984 L6.00225904,3.35033357 L6.23756846,3.35033357 L6.31028888,3.10620084 Z" id="Shape"></path>
                <path d="M0.316819551,3.72386986 L0.389519441,3.96798019 L0.624828861,3.96798019 L0.434453724,4.11886886 L0.507174151,4.36297919 L0.316799014,4.21211291 L0.126464951,4.36297919 L0.199164841,4.11886886 L0.00881024096,3.96798019 L0.244099124,3.96798019 L0.316819551,3.72386986 Z M1.64868565,3.72386986 L1.72140608,3.96798019 L1.9567155,3.96798019 L1.76634036,4.11886886 L1.83906079,4.36297919 L1.64868565,4.21211291 L1.45835159,4.36297919 L1.53105148,4.11886886 L1.34069688,3.96798019 L1.57598576,3.96798019 L1.64868565,3.72386986 Z M2.98061336,3.72386986 L3.05331325,3.96798019 L3.28862267,3.96798019 L3.09824754,4.11886886 L3.17096796,4.36297919 L2.98061336,4.21211291 L2.79025876,4.36297919 L2.86295865,4.11886886 L2.67260405,3.96798019 L2.90791347,3.96798019 L2.98061336,3.72386986 Z M4.31245893,3.72386986 L4.38515882,3.96798019 L4.6204477,3.96798019 L4.4300931,4.11886886 L4.50279299,4.36297919 L4.31245893,4.21211291 L4.12208379,4.36297919 L4.19480422,4.11886886 L4.00442908,3.96798019 L4.2397385,3.96798019 L4.31245893,3.72386986 Z M5.6443661,3.72386986 L5.71706599,3.96798019 L5.95237541,3.96798019 L5.76200027,4.11886886 L5.8347207,4.36297919 L5.64434556,4.21211291 L5.4540115,4.36297919 L5.52671139,4.11886886 L5.33635679,3.96798019 L5.57164567,3.96798019 L5.6443661,3.72386986 Z M6.97627327,3.72386986 L7.04897317,3.96798019 L7.28428258,3.96798019 L7.09390745,4.11886886 L7.16662788,4.36297919 L6.97627327,4.21211291 L6.78589814,4.36297919 L6.8586391,4.11886886 L6.66826396,3.96798019 L6.90357338,3.96798019 L6.97627327,3.72386986 Z M0.982783406,4.34151648 L1.0554833,4.58564921 L1.29079272,4.58564921 L1.10041758,4.73651548 L1.17315854,4.98064821 L0.982783406,4.82978194 L0.792428806,4.98064821 L0.865128697,4.73651548 L0.674774096,4.58564921 L0.910083516,4.58564921 L0.982783406,4.34151648 Z M2.31462897,4.34151648 L2.38732886,4.58564921 L2.62261774,4.58564921 L2.43226314,4.73651548 L2.50496303,4.98064821 L2.31462897,4.82978194 L2.12425383,4.98064821 L2.19697426,4.73651548 L2.00659912,4.58564921 L2.24190854,4.58564921 L2.31462897,4.34151648 Z M3.64653614,4.34151648 L3.71923604,4.58564921 L3.95454545,4.58564921 L3.76417032,4.73651548 L3.83689074,4.98064821 L3.64651561,4.82978194 L3.45618154,4.98064821 L3.52888143,4.73651548 L3.33852683,4.58564921 L3.57381572,4.58564921 L3.64653614,4.34151648 Z M4.97844332,4.34151648 L5.05114321,4.58564921 L5.28645263,4.58564921 L5.09607749,4.73651548 L5.16879792,4.98064821 L4.97844332,4.82978194 L4.78806818,4.98064821 L4.86080915,4.73651548 L4.67043401,4.58564921 L4.90574343,4.58564921 L4.97844332,4.34151648 Z M6.31028888,4.34151648 L6.38298877,4.58564921 L6.61827766,4.58564921 L6.42792306,4.73651548 L6.50062295,4.98064821 L6.31028888,4.82978194 L6.11991375,4.98064821 L6.19263417,4.73651548 L6.00225904,4.58564921 L6.23756846,4.58564921 L6.31028888,4.34151648 Z" id="Shape"></path>
                <path d="M0.316819551,4.9591855 L0.389519441,5.20329583 L0.624828861,5.20329583 L0.434453724,5.35418451 L0.507174151,5.59829483 L0.316799014,5.44742856 L0.126464951,5.59829483 L0.199164841,5.35418451 L0.00881024096,5.20329583 L0.244099124,5.20329583 L0.316819551,4.9591855 Z M1.64868565,4.9591855 L1.72140608,5.20329583 L1.9567155,5.20329583 L1.76634036,5.35418451 L1.83906079,5.59829483 L1.64868565,5.44742856 L1.45835159,5.59829483 L1.53105148,5.35418451 L1.34069688,5.20329583 L1.57598576,5.20329583 L1.64868565,4.9591855 Z M2.98061336,4.9591855 L3.05331325,5.20329583 L3.28862267,5.20329583 L3.09824754,5.35418451 L3.17096796,5.59829483 L2.98061336,5.44742856 L2.79025876,5.59829483 L2.86295865,5.35418451 L2.67260405,5.20329583 L2.90791347,5.20329583 L2.98061336,4.9591855 Z M4.31245893,4.9591855 L4.38515882,5.20329583 L4.6204477,5.20329583 L4.4300931,5.35418451 L4.50279299,5.59829483 L4.31245893,5.44742856 L4.12208379,5.59829483 L4.19480422,5.35418451 L4.00442908,5.20329583 L4.2397385,5.20329583 L4.31245893,4.9591855 Z M5.6443661,4.9591855 L5.71706599,5.20329583 L5.95237541,5.20329583 L5.76200027,5.35418451 L5.8347207,5.59829483 L5.64434556,5.44742856 L5.4540115,5.59829483 L5.52671139,5.35418451 L5.33635679,5.20329583 L5.57164567,5.20329583 L5.6443661,4.9591855 Z M6.97627327,4.9591855 L7.04897317,5.20329583 L7.28428258,5.20329583 L7.09390745,5.35418451 L7.16662788,5.59829483 L6.97627327,5.44742856 L6.78589814,5.59829483 L6.8586391,5.35418451 L6.66826396,5.20329583 L6.90357338,5.20329583 L6.97627327,4.9591855 Z" id="Shape"></path>
            </g>
        </g>
    </g>
</svg>